<?xml version="1.0" encoding="UTF-8" ?>
<!DOCTYPE svg PUBLIC "-//W3C//DTD SVG 1.1//EN" "http://www.w3.org/Graphics/SVG/1.1/DTD/svg11.dtd">
<svg width="277pt" height="432pt" viewBox="0 0 277 432" version="1.1" xmlns="http://www.w3.org/2000/svg">
<path fill="#deb600" stroke="#deb600" stroke-width="0.09375" opacity="1.00" d=" M 100.1 23.0 C 104.9 22.9 109.6 22.9 114.3 23.7 C 118.8 24.4 123.3 23.8 127.8 23.7 C 129.5 24.9 130.7 26.6 132.3 28.0 C 136.1 27.1 139.7 25.7 143.7 25.9 C 144.9 27.7 146.1 29.5 147.3 31.3 C 151.0 30.6 154.5 29.3 158.2 28.4 C 166.1 29.5 173.7 33.0 179.9 38.1 C 182.2 40.1 183.9 42.9 186.8 44.1 C 190.0 45.5 193.3 46.7 196.4 48.2 C 195.6 49.8 194.7 51.3 193.9 52.9 C 196.1 54.4 198.6 55.6 200.6 57.3 C 205.2 63.3 205.6 72.6 212.9 76.1 C 219.5 80.7 224.9 87.0 231.8 91.1 C 235.5 92.6 239.4 93.3 243.0 95.0 L 243.1 95.7 C 243.3 101.3 246.5 106.3 247.2 111.8 C 247.3 114.2 249.5 115.0 251.3 116.0 C 256.1 118.0 253.9 123.6 254.5 127.4 C 254.8 131.0 258.9 131.6 261.5 133.0 C 261.8 144.2 262.3 156.0 267.9 166.0 C 272.3 177.6 268.5 190.0 265.5 201.4 C 264.6 207.3 262.7 213.0 260.5 218.5 C 254.7 216.9 253.6 210.4 251.2 205.7 C 251.0 205.2 250.7 204.0 250.6 203.4 C 250.4 196.8 249.1 190.2 247.1 183.8 C 245.4 178.3 245.0 172.5 244.5 166.7 C 244.1 161.9 240.6 158.2 239.4 153.6 C 238.5 148.1 242.1 142.5 239.8 137.2 C 238.0 133.1 235.8 129.2 233.7 125.2 C 231.1 120.1 226.6 116.4 223.1 112.0 C 221.1 109.3 218.7 106.9 215.8 105.2 C 208.7 101.9 202.7 95.8 200.5 88.1 C 202.3 85.2 205.2 83.0 207.9 80.8 C 205.8 78.0 203.6 75.1 200.1 73.9 C 194.8 71.8 189.5 69.3 183.8 68.5 C 178.7 67.7 174.6 71.2 170.1 72.8 C 166.8 73.5 163.5 72.1 160.3 72.5 C 157.3 73.2 154.7 74.9 151.7 75.6 C 148.1 76.1 144.4 74.5 140.7 74.8 C 139.3 75.6 138.2 76.7 137.0 77.7 C 128.0 78.2 118.7 77.2 109.9 79.7 C 104.9 80.7 100.9 84.1 96.4 86.4 C 92.9 88.1 89.7 90.3 86.6 92.6 C 82.6 95.7 77.1 96.2 73.6 100.0 C 72.3 101.2 71.1 102.4 69.8 103.6 C 67.4 105.2 64.5 106.4 63.2 109.1 C 60.3 115.0 57.3 121.2 57.0 127.9 C 56.6 133.4 57.0 139.1 55.3 144.5 C 53.6 150.0 49.4 154.3 47.8 159.9 C 45.9 166.1 46.8 172.7 46.9 179.0 C 47.1 187.1 44.5 194.9 44.6 203.0 C 44.7 209.3 44.9 215.7 44.9 222.1 C 44.8 226.6 47.2 230.5 48.3 234.7 C 49.3 240.4 45.1 246.1 47.3 251.7 C 49.7 257.8 52.8 263.9 57.8 268.2 C 61.8 271.6 65.2 275.6 68.8 279.5 C 67.8 280.6 66.8 281.7 65.8 282.9 C 60.9 288.9 58.1 296.1 55.1 303.1 C 51.6 311.9 48.8 321.0 46.3 330.1 C 43.6 330.2 41.0 330.3 38.3 330.5 C 37.2 331.8 36.1 333.2 34.9 334.6 C 33.4 331.3 32.3 327.8 29.9 325.1 C 25.5 320.6 18.4 319.7 14.3 314.8 C 12.9 311.0 13.3 306.9 12.7 303.0 C 12.1 297.2 9.2 291.9 9.1 286.0 C 8.9 278.8 12.5 272.2 12.4 265.0 C 12.3 257.2 9.0 250.0 7.5 242.5 C 5.9 235.2 15.4 230.3 12.4 222.9 C 11.1 217.0 9.7 211.0 9.0 205.0 C 8.1 196.9 3.3 189.7 2.9 181.6 C 5.7 180.7 8.4 179.3 10.7 177.5 C 11.6 173.3 10.1 169.2 10.0 165.0 C 9.9 160.8 9.3 156.6 8.9 152.4 C 10.5 151.7 12.1 150.9 13.7 150.1 C 12.9 146.7 12.3 143.2 12.7 139.7 C 13.0 136.3 11.8 132.9 12.2 129.4 C 15.3 126.3 19.0 123.6 22.9 121.5 C 23.0 119.0 23.1 116.5 23.0 114.0 C 23.0 110.2 21.1 106.8 19.9 103.3 C 22.4 101.8 25.3 100.5 27.2 98.3 C 30.1 94.8 31.0 90.2 33.8 86.8 C 37.8 82.8 42.9 79.9 46.6 75.6 C 49.3 72.1 49.8 67.7 50.7 63.6 C 51.7 59.8 56.6 60.2 59.7 59.7 C 60.4 56.4 61.4 53.2 62.3 49.9 C 64.1 50.3 66.0 50.7 67.8 51.1 C 68.0 47.8 68.2 44.4 68.8 41.1 C 70.5 41.7 72.3 42.3 74.0 42.9 C 74.0 41.4 74.1 39.9 74.1 38.5 C 76.5 37.6 79.1 36.8 81.2 35.2 C 82.1 33.8 82.0 31.9 82.4 30.3 C 84.0 29.6 85.5 28.8 87.2 28.3 C 91.1 28.9 94.6 31.6 98.7 31.0 C 100.7 28.9 99.8 25.6 100.1 23.0 M 85.1 30.9 C 83.4 33.3 82.0 35.8 80.7 38.4 C 81.4 38.0 82.2 37.6 83.0 37.2 C 83.8 35.6 84.5 33.9 85.6 32.4 C 87.6 31.7 89.9 31.5 92.0 31.2 C 89.8 30.9 87.2 29.3 85.1 30.9 M 13.1 130.3 C 13.0 133.2 13.5 136.1 13.6 139.0 C 13.9 142.6 13.4 146.5 15.8 149.5 C 16.7 142.1 17.1 134.7 17.0 127.3 C 15.8 128.3 14.0 128.9 13.1 130.3 M 9.9 153.1 C 11.2 161.4 11.0 170.0 12.6 178.3 C 13.7 175.4 14.3 172.4 13.8 169.3 C 13.0 163.5 13.0 157.7 13.7 152.0 C 12.5 152.3 11.2 152.7 9.9 153.1 Z" />
<path fill="#99957f" stroke="#99957f" stroke-width="0.09375" opacity="1.00" d=" M 85.1 30.9 C 87.2 29.3 89.8 30.9 92.0 31.2 C 89.9 31.5 87.6 31.7 85.6 32.4 C 84.5 33.9 83.8 35.6 83.0 37.2 C 82.2 37.6 81.4 38.0 80.7 38.4 C 82.0 35.8 83.4 33.3 85.1 30.9 Z" />
<path fill="#c8ad53" stroke="#c8ad53" stroke-width="0.09375" opacity="1.00" d=" M 170.1 72.8 C 174.6 71.2 178.7 67.7 183.8 68.5 C 189.5 69.3 194.8 71.8 200.1 73.9 C 203.6 75.1 205.8 78.0 207.9 80.8 C 205.2 83.0 202.3 85.2 200.5 88.1 C 202.7 95.8 208.7 101.9 215.8 105.2 C 219.2 109.8 221.9 114.9 226.2 118.8 C 231.6 123.6 234.4 130.5 236.8 137.1 C 238.7 142.6 236.3 148.3 237.1 153.9 C 238.1 158.6 241.7 162.4 242.1 167.3 C 242.5 172.1 242.6 177.0 244.1 181.7 C 246.4 188.9 246.8 196.8 250.6 203.4 C 250.7 204.0 251.0 205.2 251.2 205.7 C 251.7 209.1 251.7 212.6 253.2 215.7 C 254.7 218.8 256.8 221.5 258.7 224.4 C 259.3 227.8 259.2 231.2 259.3 234.6 C 258.3 234.6 257.2 234.6 256.2 234.6 C 254.4 236.4 252.6 238.1 250.9 240.0 C 252.8 236.0 255.0 231.7 254.9 227.2 C 253.7 221.7 249.8 217.4 248.2 212.2 C 245.4 203.1 243.7 193.8 241.2 184.7 C 239.1 178.6 239.3 172.2 239.0 165.9 C 238.0 161.5 233.6 158.4 233.2 153.7 C 232.8 148.2 235.3 142.5 232.8 137.2 C 230.2 131.4 228.5 124.8 223.6 120.4 C 220.5 117.5 217.8 114.2 215.3 110.8 C 212.2 106.5 206.9 104.5 203.5 100.5 C 199.6 96.2 196.9 91.1 194.0 86.1 C 197.1 84.9 200.2 83.7 203.3 82.5 C 201.7 80.2 200.3 77.7 197.7 76.4 C 192.2 73.6 186.1 71.8 179.9 71.7 C 177.2 71.6 174.9 73.3 172.5 74.5 C 168.3 77.2 163.3 75.0 158.8 74.6 C 156.5 76.3 154.4 79.0 151.3 78.7 C 146.5 78.4 141.8 77.7 137.0 77.7 C 138.2 76.7 139.3 75.6 140.7 74.8 C 144.4 74.5 148.1 76.1 151.7 75.6 C 154.7 74.9 157.3 73.2 160.3 72.5 C 163.5 72.1 166.8 73.5 170.1 72.8 Z" />
<path fill="#e0c39a" stroke="#e0c39a" stroke-width="0.09375" opacity="1.00" d=" M 172.5 74.5 C 174.9 73.3 177.2 71.6 179.9 71.7 C 186.1 71.8 192.2 73.6 197.7 76.4 C 200.3 77.7 201.7 80.2 203.3 82.5 C 200.2 83.7 197.1 84.9 194.0 86.1 C 196.9 91.1 199.6 96.2 203.5 100.5 C 206.9 104.5 212.2 106.5 215.3 110.8 C 217.8 114.2 220.5 117.5 223.6 120.4 C 228.5 124.8 230.2 131.4 232.8 137.2 C 235.3 142.5 232.8 148.2 233.2 153.7 C 233.6 158.4 238.0 161.5 239.0 165.9 C 239.3 172.2 239.1 178.6 241.2 184.7 C 243.7 193.8 245.4 203.1 248.2 212.2 C 249.8 217.4 253.7 221.7 254.9 227.2 C 255.0 231.7 252.8 236.0 250.9 240.0 C 247.3 245.1 244.2 250.4 241.9 256.1 C 235.3 262.3 229.9 269.7 222.9 275.6 C 202.8 294.3 175.5 304.0 148.3 306.0 C 145.7 306.0 143.1 305.9 140.5 305.7 C 121.3 305.1 102.3 300.0 85.4 290.6 C 80.3 287.8 75.1 285.0 70.6 281.1 C 70.3 276.5 67.4 272.8 63.9 270.1 C 57.9 265.1 53.8 258.2 51.0 251.1 C 48.3 244.4 54.1 237.4 51.1 230.7 C 49.8 227.2 48.4 223.6 48.5 219.7 C 48.6 211.7 47.5 203.6 48.6 195.6 C 49.4 189.2 50.3 182.8 50.3 176.4 C 50.4 171.3 49.9 166.2 50.6 161.2 C 51.0 157.4 53.3 154.3 55.2 151.2 C 58.5 145.7 60.7 139.3 60.3 132.9 C 60.1 129.2 59.3 125.3 60.7 121.7 C 63.1 115.4 66.0 109.2 69.8 103.6 C 71.1 102.4 72.3 101.2 73.6 100.0 C 76.2 99.9 79.0 100.0 81.5 99.2 C 83.6 98.2 85.3 96.5 87.1 95.0 C 90.9 91.5 96.3 90.5 100.3 87.3 C 105.0 83.4 111.3 83.0 116.9 81.2 C 122.1 79.4 127.5 81.9 132.8 81.5 C 135.0 81.5 135.7 79.0 137.0 77.7 C 141.8 77.7 146.5 78.4 151.3 78.7 C 154.4 79.0 156.5 76.3 158.8 74.6 C 163.3 75.0 168.3 77.2 172.5 74.5 M 94.0 139.1 C 85.4 146.4 77.6 154.7 68.9 161.9 C 69.1 162.7 69.6 164.3 69.8 165.1 C 75.5 162.3 79.7 157.5 84.3 153.3 C 89.0 148.5 94.4 144.5 99.3 139.9 C 97.6 139.3 95.6 137.4 94.0 139.1 M 194.5 139.8 C 194.4 140.6 194.2 142.2 194.0 143.0 C 201.4 149.3 209.5 154.8 216.9 161.1 C 219.2 162.7 221.4 165.3 224.5 164.5 C 225.4 161.9 222.8 160.4 221.2 158.9 C 214.7 154.0 208.3 149.1 202.0 144.0 C 199.7 142.2 197.1 140.9 194.5 139.8 M 105.0 158.2 L 106.0 158.0 C 97.3 162.0 88.8 167.2 83.3 175.2 C 79.6 180.8 76.4 186.9 75.7 193.7 C 74.8 201.2 74.7 209.5 78.8 216.2 C 83.2 223.1 89.5 229.7 98.0 230.9 C 107.0 232.1 117.0 231.1 124.5 225.5 C 129.4 221.7 134.7 218.1 137.7 212.6 C 140.6 207.4 143.6 202.0 144.8 196.1 L 145.0 197.3 L 145.2 196.1 C 146.2 202.9 149.8 209.0 153.1 214.9 C 158.4 222.2 165.3 228.8 174.0 231.9 C 176.0 233.1 178.0 234.3 180.4 234.6 C 186.7 235.3 193.4 235.1 199.2 232.2 C 203.7 230.0 208.6 227.7 211.1 223.1 C 214.6 216.9 218.0 210.3 218.0 203.0 C 218.1 197.2 217.7 191.2 215.1 185.8 C 213.2 181.9 212.0 177.7 210.2 173.8 C 209.0 171.1 206.1 170.4 203.7 169.2 C 204.0 168.4 204.3 167.7 204.6 166.9 C 201.7 164.8 198.2 163.4 194.5 164.3 C 192.5 162.7 190.3 161.2 187.9 160.1 L 188.9 160.4 C 186.7 158.5 184.0 157.1 181.1 156.8 C 175.0 156.0 168.2 155.5 163.0 159.2 L 164.0 159.0 C 157.9 162.4 152.9 167.7 149.1 173.5 C 147.9 173.4 146.8 173.4 145.7 173.4 C 143.6 168.5 140.7 163.9 136.9 160.1 C 135.6 160.8 134.2 161.5 132.9 162.1 C 132.5 161.8 131.6 161.1 131.2 160.7 L 132.0 161.1 C 128.9 157.7 124.5 156.2 120.0 155.9 C 115.0 155.6 109.4 155.1 105.0 158.2 M 124.8 267.9 C 125.8 269.6 126.6 271.7 128.5 272.5 C 135.4 276.3 143.5 276.2 151.0 276.1 C 156.8 276.0 163.7 274.5 166.3 268.7 C 162.7 269.6 159.7 271.9 156.2 273.2 C 151.3 274.2 146.2 273.9 141.2 273.5 C 135.3 273.0 130.3 269.6 124.8 267.9 Z" />
<path fill="#cbac32" stroke="#cbac32" stroke-width="0.09375" opacity="1.00" d=" M 109.9 79.7 C 118.7 77.2 128.0 78.2 137.0 77.7 C 135.7 79.0 135.0 81.5 132.8 81.5 C 127.5 81.9 122.1 79.4 116.9 81.2 C 111.3 83.0 105.0 83.4 100.3 87.3 C 96.3 90.5 90.9 91.5 87.1 95.0 C 85.3 96.5 83.6 98.2 81.5 99.2 C 79.0 100.0 76.2 99.9 73.6 100.0 C 77.1 96.2 82.6 95.7 86.6 92.6 C 89.7 90.3 92.9 88.1 96.4 86.4 C 100.9 84.1 104.9 80.7 109.9 79.7 Z" />
<path fill="#dec13b" stroke="#dec13b" stroke-width="0.09375" opacity="1.00" d=" M 247.2 111.8 C 246.5 106.3 243.3 101.3 243.1 95.7 C 244.6 98.6 246.4 101.3 247.6 104.4 C 248.2 107.0 248.0 109.8 248.2 112.5 C 249.2 113.7 250.3 114.8 251.3 116.0 C 249.5 115.0 247.3 114.2 247.2 111.8 Z" />
<path fill="#e1c568" stroke="#e1c568" stroke-width="0.09375" opacity="1.00" d=" M 63.2 109.1 C 64.5 106.4 67.4 105.2 69.8 103.6 C 66.0 109.2 63.1 115.4 60.7 121.7 C 59.3 125.3 60.1 129.2 60.3 132.9 C 60.7 139.3 58.5 145.7 55.2 151.2 C 53.3 154.3 51.0 157.4 50.6 161.2 C 49.9 166.2 50.4 171.3 50.3 176.4 C 50.3 182.8 49.4 189.2 48.6 195.6 C 47.5 203.6 48.6 211.7 48.5 219.7 C 48.4 223.6 49.8 227.2 51.1 230.7 C 54.1 237.4 48.3 244.4 51.0 251.1 C 53.8 258.2 57.9 265.1 63.9 270.1 C 67.4 272.8 70.3 276.5 70.6 281.1 C 70.2 280.7 69.3 279.9 68.8 279.5 C 65.2 275.6 61.8 271.6 57.8 268.2 C 52.8 263.9 49.7 257.8 47.3 251.7 C 45.1 246.1 49.3 240.4 48.3 234.7 C 47.2 230.5 44.8 226.6 44.9 222.1 C 44.9 215.7 44.7 209.3 44.6 203.0 C 44.5 194.9 47.1 187.1 46.9 179.0 C 46.8 172.7 45.9 166.1 47.8 159.9 C 49.4 154.3 53.6 150.0 55.3 144.5 C 57.0 139.1 56.6 133.4 57.0 127.9 C 57.3 121.2 60.3 115.0 63.2 109.1 Z" />
<path fill="#dbb625" stroke="#dbb625" stroke-width="0.09375" opacity="1.00" d=" M 215.8 105.2 C 218.7 106.9 221.1 109.3 223.1 112.0 C 226.6 116.4 231.1 120.1 233.7 125.2 C 235.8 129.2 238.0 133.1 239.8 137.2 C 242.1 142.5 238.5 148.1 239.4 153.6 C 240.6 158.2 244.1 161.9 244.5 166.7 C 245.0 172.5 245.4 178.3 247.1 183.8 C 249.1 190.2 250.4 196.8 250.6 203.4 C 246.8 196.8 246.4 188.9 244.1 181.7 C 242.6 177.0 242.5 172.1 242.1 167.3 C 241.7 162.4 238.1 158.6 237.1 153.9 C 236.3 148.3 238.7 142.6 236.8 137.1 C 234.4 130.5 231.6 123.6 226.2 118.8 C 221.9 114.9 219.2 109.8 215.8 105.2 Z" />
<path fill="#e4ab24" stroke="#e4ab24" stroke-width="0.09375" opacity="1.00" d=" M 13.1 130.3 C 14.0 128.9 15.8 128.3 17.0 127.3 C 17.1 134.7 16.7 142.1 15.8 149.5 C 13.4 146.5 13.9 142.6 13.6 139.0 C 13.5 136.1 13.0 133.2 13.1 130.3 Z" />
<path fill="#202206" stroke="#202206" stroke-width="0.09375" opacity="1.00" d=" M 94.0 139.1 C 95.6 137.4 97.6 139.3 99.3 139.9 C 94.4 144.5 89.0 148.5 84.3 153.3 C 79.7 157.5 75.5 162.3 69.8 165.1 C 69.6 164.3 69.1 162.7 68.9 161.9 C 77.6 154.7 85.4 146.4 94.0 139.1 Z" />
<path fill="#291f0f" stroke="#291f0f" stroke-width="0.09375" opacity="1.00" d=" M 194.5 139.8 C 197.1 140.9 199.7 142.2 202.0 144.0 C 208.3 149.1 214.7 154.0 221.2 158.9 C 222.8 160.4 225.4 161.9 224.5 164.5 C 221.4 165.3 219.2 162.7 216.9 161.1 C 209.5 154.8 201.4 149.3 194.0 143.0 C 194.2 142.2 194.4 140.6 194.5 139.8 Z" />
<path fill="#ddad27" stroke="#ddad27" stroke-width="0.09375" opacity="1.00" d=" M 9.9 153.1 C 11.2 152.7 12.5 152.3 13.7 152.0 C 13.0 157.7 13.0 163.5 13.8 169.3 C 14.3 172.4 13.7 175.4 12.6 178.3 C 11.0 170.0 11.2 161.4 9.9 153.1 Z" />
<path fill="#9a937b" stroke="#9a937b" stroke-width="0.09375" opacity="1.00" d=" M 105.0 158.2 C 109.4 155.1 115.0 155.6 120.0 155.9 C 124.5 156.2 128.9 157.7 132.0 161.1 L 131.2 160.7 C 123.4 156.8 114.4 156.2 106.0 158.0 L 105.0 158.2 Z" />
<path fill="#9a937b" stroke="#9a937b" stroke-width="0.09375" opacity="1.00" d=" M 163.0 159.2 C 168.2 155.5 175.0 156.0 181.1 156.8 C 184.0 157.1 186.7 158.5 188.9 160.4 L 187.9 160.1 C 180.3 157.4 171.9 157.1 164.0 159.0 L 163.0 159.2 Z" />
<path fill="#e9ece7" stroke="#e9ece7" stroke-width="0.09375" opacity="1.00" d=" M 106.0 158.0 C 114.4 156.2 123.4 156.8 131.2 160.7 C 131.6 161.1 132.5 161.8 132.9 162.1 C 136.3 165.5 139.6 169.1 141.7 173.4 C 143.4 176.9 144.1 180.8 145.0 184.7 C 146.5 181.0 147.5 177.1 149.1 173.5 C 152.9 167.7 157.9 162.4 164.0 159.0 C 171.9 157.1 180.3 157.4 187.9 160.1 C 190.3 161.2 192.5 162.7 194.5 164.3 C 201.3 170.0 207.6 176.8 210.6 185.3 C 213.8 193.8 215.3 203.5 212.3 212.3 C 209.6 220.8 203.3 228.6 194.7 231.6 C 188.0 233.7 180.8 233.0 174.0 231.9 C 165.3 228.8 158.4 222.2 153.1 214.9 C 149.8 209.0 146.2 202.9 145.2 196.1 C 146.0 192.2 146.0 188.2 145.5 184.2 C 142.9 187.7 143.9 192.2 144.8 196.1 C 143.6 202.0 140.6 207.4 137.7 212.6 C 134.7 218.1 129.4 221.7 124.5 225.5 C 117.0 231.1 107.0 232.1 98.0 230.9 C 89.5 229.7 83.2 223.1 78.8 216.2 C 74.7 209.5 74.8 201.2 75.7 193.7 C 76.4 186.9 79.6 180.8 83.3 175.2 C 88.8 167.2 97.3 162.0 106.0 158.0 M 119.3 193.0 C 119.3 195.3 119.3 197.5 119.3 199.8 C 121.6 199.9 123.9 199.9 126.2 199.9 C 126.4 197.9 126.6 195.9 126.4 194.0 C 124.8 191.4 121.7 192.8 119.3 193.0 M 161.4 194.5 C 159.8 196.2 160.7 198.6 161.7 200.3 C 163.7 200.8 165.8 200.8 167.8 200.8 C 167.9 198.8 169.1 196.4 167.6 194.6 C 166.3 192.5 162.7 192.5 161.4 194.5 Z" />
<path fill="#ac7c75" stroke="#ac7c75" stroke-width="0.09375" opacity="1.00" d=" M 274.3 157.3 C 274.8 157.8 274.8 157.8 274.3 157.3 Z" />
<path fill="#c5bdb3" stroke="#c5bdb3" stroke-width="0.09375" opacity="1.00" d=" M 132.9 162.1 C 134.2 161.5 135.6 160.8 136.9 160.1 C 140.7 163.9 143.6 168.5 145.7 173.4 C 146.8 173.4 147.9 173.4 149.1 173.5 C 147.5 177.1 146.5 181.0 145.0 184.7 C 144.1 180.8 143.4 176.9 141.7 173.4 C 139.6 169.1 136.3 165.5 132.9 162.1 Z" />
<path fill="#d5c7af" stroke="#d5c7af" stroke-width="0.09375" opacity="1.00" d=" M 194.5 164.3 C 198.2 163.4 201.7 164.8 204.6 166.9 C 204.3 167.7 204.0 168.4 203.7 169.2 C 206.1 170.4 209.0 171.1 210.2 173.8 C 212.0 177.7 213.2 181.9 215.1 185.8 C 217.7 191.2 218.1 197.2 218.0 203.0 C 218.0 210.3 214.6 216.9 211.1 223.1 C 208.6 227.7 203.7 230.0 199.2 232.2 C 193.4 235.1 186.7 235.3 180.4 234.6 C 178.0 234.3 176.0 233.1 174.0 231.9 C 180.8 233.0 188.0 233.7 194.7 231.6 C 203.3 228.6 209.6 220.8 212.3 212.3 C 215.3 203.5 213.8 193.8 210.6 185.3 C 207.6 176.8 201.3 170.0 194.5 164.3 Z" />
<path fill="#95a09e" stroke="#95a09e" stroke-width="0.09375" opacity="1.00" d=" M 144.8 196.1 C 143.9 192.2 142.9 187.7 145.5 184.2 C 146.0 188.2 146.0 192.2 145.2 196.1 L 145.0 197.3 L 144.8 196.1 Z" />
<path fill="#211a30" stroke="#211a30" stroke-width="0.09375" opacity="1.00" d=" M 119.3 193.0 C 121.7 192.8 124.8 191.4 126.4 194.0 C 126.6 195.9 126.4 197.9 126.2 199.9 C 123.9 199.9 121.6 199.9 119.3 199.8 C 119.3 197.5 119.3 195.3 119.3 193.0 Z" />
<path fill="#161e23" stroke="#161e23" stroke-width="0.09375" opacity="1.00" d=" M 161.4 194.5 C 162.7 192.5 166.3 192.5 167.6 194.6 C 169.1 196.4 167.9 198.8 167.8 200.8 C 165.8 200.8 163.7 200.8 161.7 200.3 C 160.7 198.6 159.8 196.2 161.4 194.5 Z" />
<path fill="#e2b531" stroke="#e2b531" stroke-width="0.09375" opacity="1.00" d=" M 251.2 205.7 C 253.6 210.4 254.7 216.9 260.5 218.5 C 261.1 218.7 262.3 219.2 262.9 219.4 C 261.6 221.1 261.0 223.7 258.7 224.4 C 256.8 221.5 254.7 218.8 253.2 215.7 C 251.7 212.6 251.7 209.1 251.2 205.7 Z" />
<path fill="#c6b54b" stroke="#c6b54b" stroke-width="0.09375" opacity="1.00" d=" M 12.4 222.9 C 15.4 230.3 5.9 235.2 7.5 242.5 C 9.0 250.0 12.3 257.2 12.4 265.0 C 12.5 272.2 8.9 278.8 9.1 286.0 C 9.2 291.9 12.1 297.2 12.7 303.0 C 13.3 306.9 12.9 311.0 14.3 314.8 C 18.4 319.7 25.5 320.6 29.9 325.1 C 32.3 327.8 33.4 331.3 34.9 334.6 C 33.8 335.9 32.6 337.3 31.4 338.7 C 30.9 337.3 30.4 335.8 29.9 334.4 C 29.5 334.6 28.7 334.8 28.3 335.0 C 28.5 332.7 29.7 330.1 27.9 328.1 C 26.3 325.6 23.7 324.0 21.0 323.0 C 17.5 321.6 14.3 319.6 11.1 317.6 C 10.9 312.5 11.3 307.3 10.8 302.2 C 9.3 296.8 6.4 291.7 6.3 286.0 C 6.4 281.8 7.4 277.7 8.7 273.8 C 9.4 269.2 9.0 264.6 9.0 260.0 C 8.7 252.2 4.2 245.0 5.1 237.2 C 7.1 232.3 10.4 227.9 12.4 222.9 Z" />
<path fill="#d9b136" stroke="#d9b136" stroke-width="0.09375" opacity="1.00" d=" M 256.2 234.6 C 257.2 234.6 258.3 234.6 259.3 234.6 C 259.1 240.0 255.7 244.6 256.0 250.0 C 256.0 259.3 256.1 268.7 256.0 278.0 C 255.7 283.0 254.6 288.5 250.5 291.8 C 252.4 285.3 254.8 278.9 254.7 272.0 C 254.5 262.9 255.6 253.5 253.1 244.6 C 249.7 248.8 246.8 253.5 241.9 256.1 C 244.2 250.4 247.3 245.1 250.9 240.0 C 252.6 238.1 254.4 236.4 256.2 234.6 Z" />
<path fill="#dfb502" stroke="#dfb502" stroke-width="0.09375" opacity="1.00" d=" M 241.9 256.1 C 246.8 253.5 249.7 248.8 253.1 244.6 C 255.6 253.5 254.5 262.9 254.7 272.0 C 254.8 278.9 252.4 285.3 250.5 291.8 C 248.6 297.2 248.5 303.1 247.7 308.8 C 242.2 305.4 240.6 298.9 237.6 293.6 C 235.3 288.7 232.3 284.2 229.2 279.8 C 228.2 278.1 226.3 275.8 228.0 274.0 C 231.3 269.9 236.1 267.4 239.2 263.1 C 240.7 261.1 241.2 258.5 241.9 256.1 Z" />
<path fill="#eda534" stroke="#eda534" stroke-width="0.09375" opacity="1.00" d=" M 222.9 275.6 C 229.9 269.7 235.3 262.3 241.9 256.1 C 241.2 258.5 240.7 261.1 239.2 263.1 C 236.1 267.4 231.3 269.9 228.0 274.0 C 226.3 275.8 228.2 278.1 229.2 279.8 C 232.3 284.2 235.3 288.7 237.6 293.6 C 240.6 298.9 242.2 305.4 247.7 308.8 C 248.5 303.1 248.6 297.2 250.5 291.8 C 250.5 295.4 249.9 299.0 250.4 302.6 C 250.9 306.2 251.5 310.0 250.7 313.6 C 249.5 315.6 247.6 317.0 245.9 318.7 C 240.7 307.1 235.3 295.6 228.5 284.8 C 226.9 282.1 225.3 279.4 223.6 276.7 C 223.5 276.4 223.1 275.9 222.9 275.6 Z" />
<path fill="#49331b" stroke="#49331b" stroke-width="0.09375" opacity="1.00" d=" M 124.8 267.9 C 130.3 269.6 135.3 273.0 141.2 273.5 C 146.2 273.9 151.3 274.2 156.2 273.2 C 159.7 271.9 162.7 269.6 166.3 268.7 C 163.7 274.5 156.8 276.0 151.0 276.1 C 143.5 276.2 135.4 276.3 128.5 272.5 C 126.6 271.7 125.8 269.6 124.8 267.9 Z" />
<path fill="#9a937b" stroke="#9a937b" stroke-width="0.09375" opacity="1.00" d=" M 148.3 306.0 C 175.5 304.0 202.8 294.3 222.9 275.6 C 223.1 275.9 223.5 276.4 223.6 276.7 C 223.1 277.1 222.5 277.5 221.9 277.9 C 222.2 281.0 223.3 284.5 221.4 287.3 C 218.1 292.3 213.2 295.9 208.3 299.3 C 197.1 306.5 184.8 312.2 172.0 316.1 C 163.9 318.4 155.2 320.6 146.8 318.5 C 145.6 318.2 144.5 318.0 143.3 317.7 C 137.7 317.5 132.0 318.6 126.5 317.4 C 107.9 313.1 91.1 303.5 75.4 292.9 C 72.8 290.8 70.5 288.4 68.3 285.9 C 67.5 284.9 66.6 283.9 65.8 282.9 C 66.8 281.7 67.8 280.6 68.8 279.5 C 69.3 279.9 70.2 280.7 70.6 281.1 C 75.1 285.0 80.3 287.8 85.4 290.6 C 102.3 300.0 121.3 305.1 140.5 305.7 C 141.2 307.7 141.8 309.6 142.5 311.6 C 144.5 309.7 146.4 307.9 148.3 306.0 Z" />
<path fill="#952e32" stroke="#952e32" stroke-width="0.09375" opacity="1.00" d=" M 221.9 277.9 C 222.5 277.5 223.1 277.1 223.6 276.7 C 225.3 279.4 226.9 282.1 228.5 284.8 C 223.6 290.1 218.7 295.6 212.8 299.8 C 204.7 305.6 195.7 309.7 186.7 313.8 C 178.9 317.3 170.6 320.1 162.0 320.2 C 158.7 320.4 155.2 320.0 152.1 321.2 C 149.4 322.6 148.7 325.8 148.6 328.5 C 148.5 345.0 147.7 361.4 146.7 377.8 C 146.6 382.1 145.1 386.9 147.1 390.9 C 151.1 392.7 155.7 391.9 160.0 391.9 C 166.8 391.4 173.7 391.7 180.5 392.0 C 167.9 394.4 155.0 394.2 142.2 393.9 C 142.9 372.9 144.1 352.0 144.9 331.0 C 145.0 326.8 145.7 322.6 146.8 318.5 C 155.2 320.6 163.9 318.4 172.0 316.1 C 184.8 312.2 197.1 306.5 208.3 299.3 C 213.2 295.9 218.1 292.3 221.4 287.3 C 223.3 284.5 222.2 281.0 221.9 277.9 Z" />
<path fill="#a33b06" stroke="#a33b06" stroke-width="0.09375" opacity="1.00" d=" M 55.1 303.1 C 58.1 296.1 60.9 288.9 65.8 282.9 C 66.6 283.9 67.5 284.9 68.3 285.9 C 64.9 293.6 60.3 300.8 57.9 309.0 C 55.0 318.7 51.7 328.3 49.0 338.0 C 47.6 338.7 46.2 339.4 44.8 339.9 C 43.3 340.0 41.7 340.1 40.2 340.3 C 41.6 339.6 43.1 339.0 44.5 338.3 C 45.1 335.6 45.6 332.8 46.3 330.1 C 48.8 321.0 51.6 311.9 55.1 303.1 Z" />
<path fill="#bd2727" stroke="#bd2727" stroke-width="0.09375" opacity="1.00" d=" M 228.5 284.8 C 235.3 295.6 240.7 307.1 245.9 318.7 C 249.0 327.6 251.2 336.9 252.3 346.3 C 246.9 345.1 241.4 342.6 235.7 343.8 C 231.7 344.6 227.8 345.5 223.8 346.0 C 223.1 341.3 222.7 336.5 220.9 332.1 C 220.2 330.2 218.2 329.3 216.8 328.2 C 216.4 327.9 215.7 327.4 215.3 327.1 C 216.0 336.1 217.3 345.0 219.1 353.8 C 216.6 355.4 214.0 358.2 215.0 361.5 C 217.1 369.5 220.5 377.3 226.1 383.5 C 223.2 384.7 220.2 385.8 217.1 386.4 C 205.0 388.6 192.9 391.1 180.5 392.0 C 173.7 391.7 166.8 391.4 160.0 391.9 C 155.7 391.9 151.1 392.7 147.1 390.9 C 145.1 386.9 146.6 382.1 146.7 377.8 C 147.7 361.4 148.5 345.0 148.6 328.5 C 148.7 325.8 149.4 322.6 152.1 321.2 C 155.2 320.0 158.7 320.4 162.0 320.2 C 170.6 320.1 178.9 317.3 186.7 313.8 C 195.7 309.7 204.7 305.6 212.8 299.8 C 218.7 295.6 223.6 290.1 228.5 284.8 Z" />
<path fill="#bd2928" stroke="#bd2928" stroke-width="0.09375" opacity="1.00" d=" M 68.3 285.9 C 70.5 288.4 72.8 290.8 75.4 292.9 C 76.6 295.5 78.3 297.8 80.8 299.2 C 88.5 304.1 96.5 308.7 104.9 312.2 C 113.5 315.6 122.1 319.4 131.4 320.8 C 131.2 321.5 131.1 322.2 131.0 322.9 C 130.6 325.0 130.3 327.0 130.1 329.1 L 130.0 330.2 C 133.2 330.1 136.5 329.8 139.7 329.6 C 140.4 330.4 141.0 331.2 141.7 332.0 C 141.2 341.1 140.6 350.2 140.3 359.4 C 139.5 370.4 140.1 381.5 138.1 392.4 C 129.4 392.2 120.8 392.2 112.2 390.8 C 104.1 389.4 95.7 390.5 87.7 388.3 C 80.2 386.1 72.4 386.3 64.9 384.0 C 61.1 382.9 57.2 382.1 53.3 381.4 C 53.5 379.7 53.8 378.0 54.0 376.3 C 56.4 375.4 59.3 375.0 60.6 372.6 C 63.8 367.5 66.4 361.8 67.9 355.9 C 69.2 350.9 65.4 346.7 62.2 343.4 C 62.9 337.2 63.8 331.0 63.9 324.8 C 61.3 330.6 59.7 336.7 57.9 342.7 C 54.9 341.2 52.0 339.6 49.0 338.0 C 51.7 328.3 55.0 318.7 57.9 309.0 C 60.3 300.8 64.9 293.6 68.3 285.9 M 129.8 347.4 C 129.3 349.8 129.3 352.3 129.5 354.7 C 132.2 354.2 134.8 353.6 137.4 353.1 C 135.9 350.0 133.3 347.8 129.8 347.4 M 128.1 376.1 C 128.1 378.2 128.1 380.3 128.1 382.4 C 130.2 382.2 132.3 381.9 134.4 381.5 C 134.2 379.7 134.0 377.9 133.8 376.2 C 131.9 376.1 130.0 376.1 128.1 376.1 Z" />
<path fill="#a12e31" stroke="#a12e31" stroke-width="0.09375" opacity="1.00" d=" M 75.4 292.9 C 91.1 303.5 107.9 313.1 126.5 317.4 C 132.0 318.6 137.7 317.5 143.3 317.7 C 141.8 322.3 141.6 327.2 141.7 332.0 C 141.0 331.2 140.4 330.4 139.7 329.6 C 136.5 329.8 133.2 330.1 130.0 330.2 L 130.1 329.1 C 131.6 329.1 133.2 329.1 134.7 329.1 C 135.3 328.4 136.4 326.9 137.0 326.1 C 134.9 325.2 132.9 324.1 131.0 322.9 C 131.1 322.2 131.2 321.5 131.4 320.8 C 122.1 319.4 113.5 315.6 104.9 312.2 C 96.5 308.7 88.5 304.1 80.8 299.2 C 78.3 297.8 76.6 295.5 75.4 292.9 Z" />
<path fill="#712a07" stroke="#712a07" stroke-width="0.09375" opacity="1.00" d=" M 142.5 311.6 C 141.8 309.6 141.2 307.7 140.5 305.7 C 143.1 305.9 145.7 306.0 148.3 306.0 C 146.4 307.9 144.5 309.7 142.5 311.6 Z" />
<path fill="#711214" stroke="#711214" stroke-width="0.09375" opacity="1.00" d=" M 141.7 332.0 C 141.6 327.2 141.8 322.3 143.3 317.7 C 144.5 318.0 145.6 318.2 146.8 318.5 C 145.7 322.6 145.0 326.8 144.9 331.0 C 144.1 352.0 142.9 372.9 142.2 393.9 C 141.0 393.9 139.9 393.9 138.8 393.9 C 138.6 393.5 138.3 392.8 138.1 392.4 C 140.1 381.5 139.5 370.4 140.3 359.4 C 140.6 350.2 141.2 341.1 141.7 332.0 Z" />
<path fill="#620f11" stroke="#620f11" stroke-width="0.09375" opacity="1.00" d=" M 131.0 322.9 C 132.9 324.1 134.9 325.2 137.0 326.1 C 136.4 326.9 135.3 328.4 134.7 329.1 C 133.2 329.1 131.6 329.1 130.1 329.1 C 130.3 327.0 130.6 325.0 131.0 322.9 Z" />
<path fill="#881517" stroke="#881517" stroke-width="0.09375" opacity="1.00" d=" M 57.9 342.7 C 59.7 336.7 61.3 330.6 63.9 324.8 C 63.8 331.0 62.9 337.2 62.2 343.4 C 61.0 343.8 59.8 344.3 58.6 344.7 C 58.4 344.2 58.1 343.2 57.9 342.7 Z" />
<path fill="#851010" stroke="#851010" stroke-width="0.09375" opacity="1.00" d=" M 215.3 327.1 C 215.7 327.4 216.4 327.9 216.8 328.2 C 218.6 336.2 220.7 344.4 220.6 352.7 C 220.2 353.0 219.5 353.5 219.1 353.8 C 217.3 345.0 216.0 336.1 215.3 327.1 Z" />
<path fill="#a12c2b" stroke="#a12c2b" stroke-width="0.09375" opacity="1.00" d=" M 216.8 328.2 C 218.2 329.3 220.2 330.2 220.9 332.1 C 222.7 336.5 223.1 341.3 223.8 346.0 C 227.8 345.5 231.7 344.6 235.7 343.8 C 241.4 342.6 246.9 345.1 252.3 346.3 C 252.2 347.0 252.1 348.5 252.0 349.2 C 252.0 349.6 252.0 350.4 251.9 350.9 C 250.0 349.9 248.0 348.8 246.0 348.0 C 241.5 346.1 236.3 345.1 231.6 346.8 C 227.7 348.3 224.2 350.6 220.6 352.7 C 220.7 344.4 218.6 336.2 216.8 328.2 Z" />
<path fill="#f2a83d" stroke="#f2a83d" stroke-width="0.09375" opacity="1.00" d=" M 38.3 330.5 C 41.0 330.3 43.6 330.2 46.3 330.1 C 45.6 332.8 45.1 335.6 44.5 338.3 C 42.4 335.7 40.4 333.1 38.3 330.5 Z" />
<path fill="#a03630" stroke="#a03630" stroke-width="0.09375" opacity="1.00" d=" M 38.3 330.5 C 40.4 333.1 42.4 335.7 44.5 338.3 C 43.1 339.0 41.6 339.6 40.2 340.3 C 35.5 342.2 31.3 345.2 27.1 348.0 C 27.1 347.2 27.0 345.6 27.0 344.8 C 26.9 341.5 27.7 338.2 28.3 335.0 C 28.7 334.8 29.5 334.6 29.9 334.4 C 30.4 335.8 30.9 337.3 31.4 338.7 C 32.6 337.3 33.8 335.9 34.9 334.6 C 36.1 333.2 37.2 331.8 38.3 330.5 Z" />
<path fill="#843d33" stroke="#843d33" stroke-width="0.09375" opacity="1.00" d=" M 44.8 339.9 C 46.2 339.4 47.6 338.7 49.0 338.0 C 52.0 339.6 54.9 341.2 57.9 342.7 C 58.1 343.2 58.4 344.2 58.6 344.7 C 59.8 344.3 61.0 343.8 62.2 343.4 C 65.4 346.7 69.2 350.9 67.9 355.9 C 66.4 361.8 63.8 367.5 60.6 372.6 C 59.3 375.0 56.4 375.4 54.0 376.3 C 56.9 373.6 59.4 370.4 60.6 366.7 C 62.1 362.2 63.9 357.8 64.3 353.1 C 64.4 350.8 62.5 349.3 60.9 348.1 C 56.0 344.6 50.6 341.8 44.8 339.9 Z" />
<path fill="#99957f" stroke="#99957f" stroke-width="0.09375" opacity="1.00" d=" M 40.2 340.3 C 41.7 340.1 43.3 340.0 44.8 339.9 C 50.6 341.8 56.0 344.6 60.9 348.1 C 62.5 349.3 64.4 350.8 64.3 353.1 C 63.9 357.8 62.1 362.2 60.6 366.7 C 59.4 370.4 56.9 373.6 54.0 376.3 C 52.5 376.7 51.0 377.2 49.5 377.6 C 49.2 379.0 49.0 380.4 48.7 381.8 L 48.7 382.0 C 48.3 380.7 48.0 379.4 47.6 378.1 C 44.2 378.0 40.5 378.4 37.3 376.7 C 31.7 374.0 26.5 369.5 24.6 363.3 C 22.8 357.1 24.5 350.5 27.0 344.8 C 27.0 345.6 27.1 347.2 27.1 348.0 C 31.3 345.2 35.5 342.2 40.2 340.3 Z" />
<path fill="#c0817a" stroke="#c0817a" stroke-width="0.09375" opacity="1.00" d=" M 231.6 346.8 C 236.3 345.1 241.5 346.1 246.0 348.0 C 241.5 347.6 236.8 347.2 232.4 348.6 C 228.6 350.1 225.3 352.5 222.2 355.2 C 220.4 356.9 218.3 359.0 218.5 361.7 C 218.9 367.1 221.7 372.0 224.9 376.2 C 226.7 378.8 229.1 381.4 229.0 384.8 C 227.5 390.8 228.0 396.9 227.9 403.0 C 227.9 405.9 228.1 408.9 228.8 411.7 C 228.4 411.6 227.7 411.4 227.4 411.4 C 227.1 403.0 227.7 394.5 227.3 386.1 C 226.9 385.2 226.5 384.4 226.1 383.5 C 220.5 377.3 217.1 369.5 215.0 361.5 C 214.0 358.2 216.6 355.4 219.1 353.8 C 219.5 353.5 220.2 353.0 220.6 352.7 C 224.2 350.6 227.7 348.3 231.6 346.8 Z" />
<path fill="#6b141b" stroke="#6b141b" stroke-width="0.09375" opacity="1.00" d=" M 129.8 347.4 C 133.3 347.8 135.9 350.0 137.4 353.1 C 134.8 353.6 132.2 354.2 129.5 354.7 C 129.3 352.3 129.3 349.8 129.8 347.4 Z" />
<path fill="#96917b" stroke="#96917b" stroke-width="0.09375" opacity="1.00" d=" M 222.2 355.2 C 225.3 352.5 228.6 350.1 232.4 348.6 C 236.8 347.2 241.5 347.6 246.0 348.0 C 248.0 348.8 250.0 349.9 251.9 350.9 C 252.0 350.4 252.0 349.6 252.0 349.2 L 252.1 348.5 C 253.2 355.4 257.2 361.8 255.9 368.9 C 255.5 374.9 250.9 379.1 246.4 382.4 C 241.4 386.2 234.8 384.9 229.0 384.8 C 229.1 381.4 226.7 378.8 224.9 376.2 C 221.7 372.0 218.9 367.1 218.5 361.7 C 218.3 359.0 220.4 356.9 222.2 355.2 Z" />
<path fill="#933733" stroke="#933733" stroke-width="0.09375" opacity="1.00" d=" M 49.5 377.6 C 51.0 377.2 52.5 376.7 54.0 376.3 C 53.8 378.0 53.5 379.7 53.3 381.4 C 57.2 382.1 61.1 382.9 64.9 384.0 C 72.4 386.3 80.2 386.1 87.7 388.3 C 95.7 390.5 104.1 389.4 112.2 390.8 C 120.8 392.2 129.4 392.2 138.1 392.4 C 138.3 392.8 138.6 393.5 138.8 393.9 C 131.0 393.8 123.2 393.8 115.4 394.3 C 110.7 393.3 106.0 392.7 101.2 392.3 C 87.0 391.4 73.2 386.6 58.9 386.6 C 58.9 386.0 58.8 385.0 58.7 384.4 C 58.1 384.4 56.8 384.2 56.1 384.1 C 53.6 383.9 51.1 383.3 48.6 382.5 L 48.7 381.8 C 49.0 380.4 49.2 379.0 49.5 377.6 Z" />
<path fill="#621013" stroke="#621013" stroke-width="0.09375" opacity="1.00" d=" M 128.1 376.1 C 130.0 376.1 131.9 376.1 133.8 376.2 C 134.0 377.9 134.2 379.7 134.4 381.5 C 132.3 381.9 130.2 382.2 128.1 382.4 C 128.1 380.3 128.1 378.2 128.1 376.1 Z" />
<path fill="#4e1d15" stroke="#4e1d15" stroke-width="0.09375" opacity="1.00" d=" M 217.1 386.4 C 220.2 385.8 223.2 384.7 226.1 383.5 C 226.5 384.4 226.9 385.2 227.3 386.1 C 221.0 387.8 214.6 388.9 208.2 390.4 C 200.9 392.3 193.2 392.1 185.7 393.3 C 173.5 394.8 161.2 396.8 148.9 395.8 C 137.7 395.0 126.3 397.8 115.4 394.3 C 123.2 393.8 131.0 393.8 138.8 393.9 C 139.9 393.9 141.0 393.9 142.2 393.9 C 155.0 394.2 167.9 394.4 180.5 392.0 C 192.9 391.1 205.0 388.6 217.1 386.4 Z" />
<path fill="#85817a" stroke="#85817a" stroke-width="0.09375" opacity="1.00" d=" M 56.1 384.1 C 56.8 384.2 58.1 384.4 58.7 384.4 C 58.8 385.0 58.9 386.0 58.9 386.6 C 59.6 394.1 59.2 401.6 59.1 409.1 L 58.2 409.2 C 57.8 402.5 58.2 395.7 58.0 389.0 C 57.9 387.2 56.9 385.7 56.1 384.1 Z" />
<path fill="#162618" stroke="#162618" stroke-width="0.09375" opacity="1.00" d=" M 58.9 386.6 C 73.2 386.6 87.0 391.4 101.2 392.3 C 106.0 392.7 110.7 393.3 115.4 394.3 C 126.3 397.8 137.7 395.0 148.9 395.8 C 161.2 396.8 173.5 394.8 185.7 393.3 C 193.2 392.1 200.9 392.3 208.2 390.4 C 214.6 388.9 221.0 387.8 227.3 386.1 C 227.7 394.5 227.1 403.0 227.4 411.4 C 214.7 408.3 201.7 406.0 188.5 406.5 C 182.3 406.7 175.9 406.0 169.7 406.9 C 165.3 407.5 161.0 407.7 156.6 407.6 C 150.3 407.5 144.0 409.4 137.7 408.2 C 119.1 404.7 100.0 404.2 81.1 406.2 C 73.8 407.1 66.5 408.5 59.1 409.1 C 59.2 401.6 59.6 394.1 58.9 386.6 Z" />
<path fill="#141515" stroke="#141515" stroke-width="0.09375" opacity="1.00" d=" M 81.1 406.2 C 100.0 404.2 119.1 404.7 137.7 408.2 C 144.0 409.4 150.3 407.5 156.6 407.6 C 161.0 407.7 165.3 407.5 169.7 406.9 C 175.9 406.0 182.3 406.7 188.5 406.5 C 201.7 406.0 214.7 408.3 227.4 411.4 C 227.7 411.4 228.4 411.6 228.8 411.7 C 234.3 413.0 240.6 413.4 244.8 417.7 C 242.7 417.9 240.6 418.0 238.6 418.0 C 236.5 417.9 234.5 417.9 232.4 418.0 C 226.4 418.1 220.4 418.2 214.4 417.7 C 209.3 417.1 204.1 416.8 199.0 416.9 C 187.2 416.7 175.4 417.7 163.7 416.5 C 161.6 416.0 159.5 415.8 157.4 415.9 C 154.9 416.0 152.4 416.0 150.0 416.0 C 147.0 416.0 144.0 416.0 141.0 416.0 C 138.1 416.0 135.2 416.0 132.3 415.7 C 129.6 415.4 126.8 415.1 124.0 415.0 C 120.1 414.9 116.2 415.0 112.2 414.8 C 102.1 414.1 91.9 414.1 81.7 414.7 C 78.9 414.9 76.1 415.0 73.3 415.1 C 69.7 415.1 66.1 415.3 62.6 415.7 C 58.6 416.1 54.6 416.2 50.6 416.0 C 48.5 415.9 46.4 415.9 44.4 415.9 C 43.7 415.9 42.4 415.9 41.8 415.9 C 46.1 411.5 52.3 410.0 58.2 409.2 L 59.1 409.1 C 66.5 408.5 73.8 407.1 81.1 406.2 Z" />
<path fill="#c5bdb3" stroke="#c5bdb3" stroke-width="0.09375" opacity="1.00" d=" M 81.7 414.7 C 91.9 414.1 102.1 414.1 112.2 414.8 C 102.1 414.9 91.9 415.0 81.7 414.7 Z" />
<path fill="#808382" stroke="#808382" stroke-width="0.09375" opacity="1.00" d=" M 62.6 415.7 C 66.1 415.3 69.7 415.1 73.3 415.1 C 69.9 416.5 66.2 416.1 62.6 415.7 Z" />
<path fill="#666263" stroke="#666263" stroke-width="0.09375" opacity="1.00" d=" M 124.0 415.0 C 126.8 415.1 129.6 415.4 132.3 415.7 C 129.6 415.9 126.7 416.0 123.9 416.1 L 124.0 415.0 Z" />
<path fill="#7e8288" stroke="#7e8288" stroke-width="0.09375" opacity="1.00" d=" M 44.4 415.9 C 46.4 415.9 48.5 415.9 50.6 416.0 C 50.0 417.9 44.9 417.9 44.4 415.9 Z" />
<path fill="#7f7a89" stroke="#7f7a89" stroke-width="0.09375" opacity="1.00" d=" M 141.0 416.0 C 144.0 416.0 147.0 416.0 150.0 416.0 L 150.0 417.0 C 147.0 417.0 144.0 417.0 141.0 417.0 L 141.0 416.0 Z" />
<path fill="#6c7374" stroke="#6c7374" stroke-width="0.09375" opacity="1.00" d=" M 157.4 415.9 C 159.5 415.8 161.6 416.0 163.7 416.5 C 162.2 417.8 157.9 418.1 157.4 415.9 Z" />
<path fill="#717371" stroke="#717371" stroke-width="0.09375" opacity="1.00" d=" M 199.0 416.9 C 204.1 416.8 209.3 417.1 214.4 417.7 C 209.3 418.2 204.1 418.0 199.0 418.0 L 199.0 416.9 Z" />
<path fill="#83837f" stroke="#83837f" stroke-width="0.09375" opacity="1.00" d=" M 232.4 418.0 C 234.5 417.9 236.5 417.9 238.6 418.0 C 238.1 419.9 232.9 419.9 232.4 418.0 Z" />
</svg>
