<?xml version="1.0" encoding="UTF-8" standalone="no"?>
<!-- Created with Inkscape (http://www.inkscape.org/) -->

<svg
   xmlns:dc="http://purl.org/dc/elements/1.1/"
   xmlns:cc="http://creativecommons.org/ns#"
   xmlns:rdf="http://www.w3.org/1999/02/22-rdf-syntax-ns#"
   xmlns:svg="http://www.w3.org/2000/svg"
   xmlns="http://www.w3.org/2000/svg"
   xmlns:sodipodi="http://sodipodi.sourceforge.net/DTD/sodipodi-0.dtd"
   xmlns:inkscape="http://www.inkscape.org/namespaces/inkscape"
   width="990"
   height="765"
   id="svg2"
   sodipodi:version="0.32"
   inkscape:version="0.46+devel"
   version="1.0"
   sodipodi:docname="Timmy.svg"
   inkscape:output_extension="org.inkscape.output.svg.inkscape">
  <defs
     id="defs4">
    <inkscape:perspective
       sodipodi:type="inkscape:persp3d"
       inkscape:vp_x="0 : 526.18109 : 1"
       inkscape:vp_y="0 : 1000 : 0"
       inkscape:vp_z="744.09448 : 526.18109 : 1"
       inkscape:persp3d-origin="372.04724 : 350.78739 : 1"
       id="perspective10" />
    <inkscape:perspective
       id="perspective2969"
       inkscape:persp3d-origin="0.5 : 0.33333333 : 1"
       inkscape:vp_z="1 : 0.5 : 1"
       inkscape:vp_y="0 : 1000 : 0"
       inkscape:vp_x="0 : 0.5 : 1"
       sodipodi:type="inkscape:persp3d" />
    <inkscape:perspective
       id="perspective3081"
       inkscape:persp3d-origin="0.5 : 0.33333333 : 1"
       inkscape:vp_z="1 : 0.5 : 1"
       inkscape:vp_y="0 : 1000 : 0"
       inkscape:vp_x="0 : 0.5 : 1"
       sodipodi:type="inkscape:persp3d" />
  </defs>
  <sodipodi:namedview
     id="base"
     pagecolor="#ffffff"
     bordercolor="#666666"
     borderopacity="1.0"
     inkscape:pageopacity="0.0"
     inkscape:pageshadow="2"
     inkscape:zoom="1.04"
     inkscape:cx="453.94783"
     inkscape:cy="371.82548"
     inkscape:document-units="px"
     inkscape:current-layer="layer1"
     showgrid="false"
     inkscape:window-width="1920"
     inkscape:window-height="1146"
     inkscape:window-x="0"
     inkscape:window-y="29"
     inkscape:window-maximized="1" />
  <metadata
     id="metadata7">
    <rdf:RDF>
      <cc:Work
         rdf:about="">
        <dc:format>image/svg+xml</dc:format>
        <dc:type
           rdf:resource="http://purl.org/dc/dcmitype/StillImage" />
        <dc:title></dc:title>
      </cc:Work>
    </rdf:RDF>
  </metadata>
  <g
     inkscape:label="Layer 1"
     inkscape:groupmode="layer"
     id="layer1"
     transform="translate(0,-287.36218)">
    <g
       id="g3894"
       style="opacity:1" />
    <g
       id="g4296">
      <g
         style="opacity:1"
         id="g3942">
        <rect
           style="opacity:1;fill:#2f2420;fill-opacity:1;stroke:none"
           id="rect3934"
           width="268.00763"
           height="283.67984"
           x="350.79431"
           y="526.15186"
           ry="28.69746" />
        <rect
           style="fill:#5b69a7;fill-opacity:1;stroke:none"
           id="rect3936"
           width="191.5087"
           height="14.542896"
           x="394.45563"
           y="507.47635"
           transform="translate(0,287.36218)"
           ry="7.2714481" />
        <path
           style="fill:#5b69a7;fill-opacity:1;stroke-width:1px"
           d="m 583.67668,762.97489 c 8.44089,-20.78049 5.10964,-43.67797 6.21279,-65.52755 0.41089,-48.94433 0.10999,-97.92222 0.0941,-146.84684 -4.9896,-10.02366 -21.05895,-2.97512 -30.88391,-5.02655 -58.06618,-0.0101 -116.13237,-0.0204 -174.19855,-0.0306 -9.73492,6.96347 -2.1621,23.83166 -4.586,34.78569 0.25646,51.28384 -0.54726,102.61088 1.51196,153.86159 1.31896,9.88967 1.41591,23.55076 8.66859,29.70595 31.28901,0.56393 62.61446,0.0207 93.92139,0.0726 32.25028,-0.0892 64.50057,-0.17851 96.75085,-0.26776 l 1.2544,-0.36329 1.25439,-0.36329 0,4e-5 z"
           id="path3938" />
      </g>
      <g
         style="opacity:1"
         transform="translate(-312.69994,0)"
         id="g3898">
        <path
           transform="matrix(1.028169,0,0,1,-18.065842,282.65089)"
           d="m 662.91795,622.29486 c 0,36.84696 -9.66194,66.71732 -21.58055,66.71732 -11.9186,0 -21.58054,-29.87036 -21.58054,-66.71732 0,-36.84696 9.66194,-66.71732 21.58054,-66.71732 11.91861,0 21.58055,29.87036 21.58055,66.71732 z"
           sodipodi:ry="66.717323"
           sodipodi:rx="21.580547"
           sodipodi:cy="622.29486"
           sodipodi:cx="641.3374"
           id="path3900"
           style="fill:#99919e;fill-opacity:1;stroke:none"
           sodipodi:type="arc" />
        <rect
           ry="8.206687"
           y="784.27704"
           x="627.96356"
           height="241.33739"
           width="26.747721"
           id="rect3902"
           style="fill:#0f0f0f;fill-opacity:1;stroke:none" />
      </g>
      <rect
         ry="0"
         y="809.63501"
         x="366.73541"
         height="28.522171"
         width="234.54555"
         id="rect3932"
         style="fill:#3f302b;fill-opacity:1;stroke:none;opacity:1" />
      <path
         id="rect3879"
         transform="translate(0,287.36218)"
         d="M 362.40625 550.375 L 362.40625 550.5625 C 349.03369 552.13387 338.71875 563.44166 338.71875 577.25 L 338.71875 636.125 C 338.71875 649.93295 349.03425 661.24062 362.40625 662.8125 L 362.40625 663.03125 L 365.59375 663.03125 L 570.0625 663.03125 L 620.65625 663.03125 L 620.65625 550.375 L 570.0625 550.375 L 365.59375 550.375 L 362.40625 550.375 z "
         style="opacity:1;fill:#8dcad5;fill-opacity:1;stroke:none" />
      <rect
         transform="translate(0,287.36218)"
         y="550.21344"
         x="347.71341"
         height="129.57317"
         width="25.914635"
         id="rect3884"
         style="opacity:1;fill:#9c96a4;fill-opacity:1;stroke:none" />
      <g
         style="opacity:1"
         id="g3867">
        <path
           sodipodi:type="arc"
           style="opacity:1;fill:#c1c1c1;fill-opacity:1;stroke:none"
           id="path3865"
           sodipodi:cx="347.71341"
           sodipodi:cy="695.10669"
           sodipodi:rx="16.920731"
           sodipodi:ry="28.734756"
           d="m 364.63414,695.10669 c 0,15.86977 -7.57567,28.73476 -16.92073,28.73476 -9.34506,0 -16.92073,-12.86499 -16.92073,-28.73476 0,-15.86977 7.57567,-28.73476 16.92073,-28.73476 9.34506,0 16.92073,12.86499 16.92073,28.73476 z"
           transform="translate(0.15243902,288.12438)" />
        <rect
           style="fill:#1e1e1e;fill-opacity:1;stroke:none"
           id="rect3859"
           width="18.770788"
           height="92.613655"
           x="338.5047"
           y="934.74854"
           ry="4.8780489" />
      </g>
      <path
         sodipodi:type="arc"
         style="opacity:1;fill:#99919e;fill-opacity:1;stroke:none"
         id="path3892"
         sodipodi:cx="641.3374"
         sodipodi:cy="622.29486"
         sodipodi:rx="21.580547"
         sodipodi:ry="66.717323"
         d="m 662.91795,622.29486 c 0,36.84696 -9.66194,66.71732 -21.58055,66.71732 -11.9186,0 -21.58054,-29.87036 -21.58054,-66.71732 0,-36.84696 9.66194,-66.71732 21.58054,-66.71732 11.91861,0 21.58055,29.87036 21.58055,66.71732 z"
         transform="matrix(1.028169,0,0,1,-18.065842,282.65089)" />
      <rect
         style="opacity:1;fill:#0f0f0f;fill-opacity:1;stroke:none"
         id="rect3890"
         width="26.747721"
         height="241.33739"
         x="627.96356"
         y="784.27704"
         ry="8.206687" />
      <rect
         style="opacity:1;fill:#9c96a4;fill-opacity:1;stroke:none"
         id="rect3886"
         width="24.695122"
         height="130.48781"
         x="596.95123"
         y="837.42322" />
      <g
         style="opacity:1"
         transform="translate(274.08537,1.3719512)"
         id="g3871">
        <path
           transform="translate(0.15243902,288.12438)"
           d="m 364.63414,695.10669 c 0,15.86977 -7.57567,28.73476 -16.92073,28.73476 -9.34506,0 -16.92073,-12.86499 -16.92073,-28.73476 0,-15.86977 7.57567,-28.73476 16.92073,-28.73476 9.34506,0 16.92073,12.86499 16.92073,28.73476 z"
           sodipodi:ry="28.734756"
           sodipodi:rx="16.920731"
           sodipodi:cy="695.10669"
           sodipodi:cx="347.71341"
           id="path3873"
           style="fill:#c1c1c1;fill-opacity:1;stroke:none"
           sodipodi:type="arc" />
        <rect
           ry="4.8780489"
           y="934.74854"
           x="338.5047"
           height="92.613655"
           width="18.770788"
           id="rect3875"
           style="fill:#1e1e1e;fill-opacity:1;stroke:none" />
      </g>
      <rect
         ry="0.30488104"
         y="966.23413"
         x="361.43292"
         height="33.689026"
         width="246.19644"
         id="rect3877"
         style="fill:#54929d;fill-opacity:1;stroke:none;opacity:1" />
      <rect
         transform="translate(0,287.36218)"
         y="618.66833"
         x="373.46735"
         height="12.763819"
         width="223.01508"
         id="rect3888"
         style="fill:#69a6b1;fill-opacity:1;stroke:none;opacity:1" />
      <rect
         ry="10.137187"
         transform="translate(0,287.36218)"
         y="491.37198"
         x="413.41464"
         height="22.560959"
         width="151.98172"
         id="rect3950"
         style="opacity:1;fill:#353c72;fill-opacity:1;stroke:none" />
      <g
         style="opacity:1"
         id="g3957">
        <path
           style="fill:#e90b3a;fill-opacity:1;stroke-width:1px"
           d="m 398.8567,768.97803 c 58.35563,12.28751 120.49898,15.20961 177.66769,-4.26829 0.16995,-17.98338 -5.2342,-35.34086 -8.99589,-52.75804 -2.91106,-10.56421 -6.08823,-21.14035 -8.87801,-31.68296 0.11024,-5.07104 3.98445,1.05158 5.93606,2.03705 5.31238,4.53415 12.26545,6.84567 19.07502,7.90909 5.04882,0.21332 10.96517,1.05711 14.48381,-3.43635 8.93789,-7.18853 12.6121,-18.57379 16.14202,-29.04386 -0.0814,-3.89761 2.9169,-8.09606 -0.22882,-11.41771 -6.03166,-5.40986 -13.36332,-9.67058 -20.61346,-13.43612 -2.93062,-1.18121 -8.24298,-3.35852 -9.29878,1.11246 -1.82133,8.20663 -6.32243,15.34378 -10.19451,22.68203 -1.6131,3.64343 -4.5285,4.99998 -6.72622,0.94602 -46.36409,-2.98378 -92.75078,-5.67013 -139.10061,-8.84147 -3.88871,0.31707 -5.72526,-2.98647 -9.17083,-3.63669 -3.421,-0.15368 -8.12909,-0.78797 -9.28063,3.4393 -7.65585,9.94076 -16.291,19.19772 -23.26663,29.64778 -1.31012,3.40131 -4.49504,4.90579 -6.98563,7.14584 -2.03805,4.77064 0.48449,10.29665 1.21898,15.23302 2.51525,4.97967 5.03049,9.95934 7.54574,14.93901 4.24288,0 8.48577,10e-6 12.72865,10e-6 0.0954,15.35814 -0.77651,30.67291 -1.85571,45.98578 0.0393,2.39679 -0.65816,5.26753 -0.20224,7.4441 z"
           id="path3952" />
        <path
           style="stroke-width:1px;opacity:0.20512821000000001"
           d="m 397.58179,390.32006 9.67283,-0.99574 8.6771,1.13798 7.82361,0.71124 6.82788,1.56472 2.56046,1.99147 0.71124,2.84495 1.99146,9.81508 1.13798,9.81508 -0.71123,3.41394 -1.70697,4.26742 -2.41821,2.7027 -3.69844,0.99574 -21.47937,-0.2845 -0.99573,-1.70697 7.68136,-0.14225 9.38834,0 7.96586,-0.28449 2.9872,-3.12945 1.56472,-4.83641 -0.42674,-4.69417 -3.2717,-17.21195 -1.84922,-1.99146 -12.66002,-2.27596 -8.53485,-1.28023 -5.83215,0.14225 -4.97867,0.56899 -0.42674,-1.13798 z"
           id="path3955"
           transform="translate(0,287.36218)" />
      </g>
      <path
         sodipodi:nodetypes="cccccccccccccccccccccc"
         id="path3947"
         d="m 371.40532,810.05743 c 8.66358,0.51884 14.22944,0.44787 22.19224,1.29865 11.69909,-11.88011 25.97382,-20.68963 39.56896,-30.17364 9.34143,-6.60671 19.8957,-11.13577 30.77342,-14.54246 7.43043,-2.83458 15.41376,-3.55068 23.16591,-4.8702 10.32933,-3.58456 21.0313,-0.0684 31.38598,1.44722 12.87176,2.12933 24.86707,8.00705 35.42993,15.54017 6.84597,4.35651 13.46767,9.15131 18.59258,15.5143 5.86988,5.59755 10.75747,12.06624 14.5986,19.19954 2.12166,0.99841 5.54917,-1.81329 8.17719,-2.29233 2.371,-1.24962 6.60997,-1.76571 7.84466,-3.46156 -3.54057,-6.69144 -9.85359,-11.35347 -14.52956,-17.22567 -6.83007,-6.77001 -14.60778,-12.55068 -21.55099,-19.2069 -7.56123,-6.22782 -16.39709,-10.58902 -24.8066,-15.51306 -9.24284,-4.86151 -19.60737,-6.63077 -29.5952,-9.35443 -7.03767,-1.23049 -14.12295,-1.58146 -21.2532,-1.21951 -9.02661,-0.38889 -17.99512,1.22368 -26.80486,2.99481 -12.27178,3.03168 -23.43198,9.27045 -34.46139,15.27332 -16.13785,9.18221 -31.70608,19.38126 -46.28881,30.88455 -5.68991,3.66763 -10.77683,10.80291 -14.58291,15.55476 0.81301,0.0508 0.59303,0.0651 1.40604,0.11587 l 0.73801,0.0366 z"
         style="fill:#343641;fill-opacity:1;stroke-width:1px;opacity:1" />
      <rect
         style="fill:#57423f;fill-opacity:1;stroke:none;opacity:1"
         id="rect3906"
         width="23.579546"
         height="108.52273"
         x="598.57501"
         y="729.06671"
         ry="5.9866886" />
      <rect
         ry="8.8276033"
         y="693.27124"
         x="587.5"
         height="38.636364"
         width="49.147728"
         id="rect3908"
         style="fill:#dcc7b4;fill-opacity:1;stroke:none;opacity:1" />
      <rect
         ry="6.0028033"
         y="729.06671"
         x="346.875"
         height="108.81484"
         width="23.579546"
         id="rect3904"
         style="fill:#57423f;fill-opacity:1;stroke:none" />
      <rect
         style="fill:#dcc7b4;fill-opacity:1;stroke:none;opacity:1"
         id="rect3910"
         width="49.147728"
         height="38.636364"
         x="333"
         y="693.27124"
         ry="8.8276033" />
      <g
         style="opacity:1"
         id="g3924">
        <path
           style="stroke-width:1px;fill:#535353;fill-opacity:1;opacity:1"
           d="m 359.375,387.44318 -13.92045,16.47727 29.26136,0.2841 -15.34091,-16.76137 z"
           id="path3914"
           transform="translate(0,287.36218)"
           sodipodi:nodetypes="cccc" />
        <rect
           style="fill:#000000;fill-opacity:1;stroke:none"
           id="rect3912"
           width="58.522728"
           height="29.545454"
           x="329.26135"
           y="401.64774"
           transform="translate(0,287.36218)"
           ry="4.3700528" />
        <rect
           style="fill:#423939;fill-opacity:1;stroke:none"
           id="rect3916"
           width="6.5820398"
           height="7.2748861"
           x="356.23846"
           y="383.70358"
           transform="translate(0,287.36218)"
           ry="0" />
        <rect
           style="fill:#0a0808;fill-opacity:1;stroke:none"
           id="rect3918"
           width="13.395028"
           height="2.8868594"
           x="352.88971"
           y="389.5928"
           transform="translate(0,287.36218)" />
        <rect
           style="fill:#0a0808;fill-opacity:1;stroke:none"
           id="rect3920"
           width="9.0070019"
           height="2.7713852"
           x="355.08371"
           y="383.47266"
           transform="translate(0,287.36218)" />
        <path
           sodipodi:type="arc"
           style="opacity:1;fill:#c4122c;fill-opacity:1;stroke:none"
           id="path3922"
           sodipodi:cx="359.52948"
           sodipodi:cy="376.65967"
           sodipodi:rx="9.6421108"
           sodipodi:ry="9.2379503"
           d="m 369.17159,376.65967 c 0,5.10198 -4.31692,9.23795 -9.64211,9.23795 -5.32519,0 -9.64211,-4.13597 -9.64211,-9.23795 0,-5.10198 4.31692,-9.23795 9.64211,-9.23795 5.32519,0 9.64211,4.13597 9.64211,9.23795 z"
           transform="translate(0.11547438,286.66933)" />
      </g>
      <g
         style="opacity:1"
         id="g3984">
        <path
           style="fill:#814c3d;fill-opacity:1;stroke-width:1px;opacity:1"
           d="m 435.88362,820.35787 c 4.67816,1.09156 10.00336,1.63884 14.2262,-1.15022 8.34637,-4.13946 12.56572,-12.90148 17.48075,-20.31612 4.5784,-6.96044 8.20522,-14.78094 8.76252,-23.20179 0.63223,-6.49358 0.83979,-13.11992 -0.15854,-19.58098 -1.42827,-5.42223 -6.00845,-9.85977 -11.31664,-11.49419 -5.65628,-1.71338 -11.29794,1.27901 -15.69752,4.62361 -2.69816,2.0182 -4.73873,4.81603 -7.16844,7.15672 -4.58028,4.78442 -8.88338,10.03118 -11.20865,16.31743 -4.9404,10.11224 -7.49749,21.79238 -5.11576,32.95075 -0.008,3.83983 1.90963,7.24805 4.62288,9.82701 1.63983,1.85604 3.62033,3.36167 5.5732,4.86778 z"
           id="path3961" />
        <path
           style="stroke-width:1px"
           d="m 427.15517,496.14224 39.11638,17.78017 1.72414,-2.47844 -40.19397,-18.85776 -0.64655,3.55603 z"
           id="path3966"
           transform="translate(0,287.36218)" />
        <path
           sodipodi:type="arc"
           style="opacity:1;fill:#9f8b7f;fill-opacity:1;stroke:none"
           id="path3968"
           sodipodi:cx="437.71552"
           sodipodi:cy="479.97845"
           sodipodi:rx="3.0172415"
           sodipodi:ry="2.8017242"
           d="m 440.73276,479.97845 c 0,1.54735 -1.35087,2.80173 -3.01724,2.80173 -1.66638,0 -3.01725,-1.25438 -3.01725,-2.80173 0,-1.54734 1.35087,-2.80172 3.01725,-2.80172 1.66637,0 3.01724,1.25438 3.01724,2.80172 z"
           transform="translate(0,287.36218)" />
        <path
           sodipodi:type="arc"
           style="fill:#9f8b7f;fill-opacity:1;stroke:none"
           id="path3970"
           sodipodi:cx="450.59268"
           sodipodi:cy="467.42456"
           sodipodi:rx="2.8556035"
           sodipodi:ry="2.6400862"
           d="m 453.44829,467.42456 c 0,1.45808 -1.2785,2.64009 -2.85561,2.64009 -1.5771,0 -2.8556,-1.18201 -2.8556,-2.64009 0,-1.45808 1.2785,-2.64009 2.8556,-2.64009 1.57711,0 2.85561,1.18201 2.85561,2.64009 z"
           transform="translate(0,287.36218)" />
        <path
           sodipodi:type="arc"
           style="fill:#9f8b7f;fill-opacity:1;stroke:none"
           id="path3972"
           sodipodi:cx="465.73276"
           sodipodi:cy="463.86853"
           sodipodi:rx="2.8017242"
           sodipodi:ry="2.6400862"
           d="m 468.53448,463.86853 c 0,1.45808 -1.25437,2.64009 -2.80172,2.64009 -1.54735,0 -2.80173,-1.18201 -2.80173,-2.64009 0,-1.45808 1.25438,-2.64009 2.80173,-2.64009 1.54735,0 2.80172,1.18201 2.80172,2.64009 z"
           transform="translate(0,287.36218)" />
        <path
           sodipodi:type="arc"
           style="fill:#9f8b7f;fill-opacity:1;stroke:none"
           id="path3974"
           sodipodi:cx="473.00647"
           sodipodi:cy="477.5"
           sodipodi:rx="2.7478449"
           sodipodi:ry="2.8017242"
           d="m 475.75431,477.5 c 0,1.54735 -1.23025,2.80172 -2.74784,2.80172 -1.51759,0 -2.74785,-1.25437 -2.74785,-2.80172 0,-1.54735 1.23026,-2.80172 2.74785,-2.80172 1.51759,0 2.74784,1.25437 2.74784,2.80172 z"
           transform="translate(0,287.36218)" />
        <path
           sodipodi:type="arc"
           style="fill:#9f8b7f;fill-opacity:1;stroke:none"
           id="path3976"
           sodipodi:cx="472.52155"
           sodipodi:cy="493.34052"
           sodipodi:rx="2.5862069"
           sodipodi:ry="2.5862069"
           d="m 475.10775,493.34052 c 0,1.42832 -1.15788,2.5862 -2.5862,2.5862 -1.42833,0 -2.58621,-1.15788 -2.58621,-2.5862 0,-1.42833 1.15788,-2.58621 2.58621,-2.58621 1.42832,0 2.5862,1.15788 2.5862,2.58621 z"
           transform="translate(0,287.36218)" />
        <path
           sodipodi:type="arc"
           style="fill:#9f8b7f;fill-opacity:1;stroke:none"
           id="path3978"
           sodipodi:cx="428.98706"
           sodipodi:cy="516.8858"
           sodipodi:rx="2.9094827"
           sodipodi:ry="2.5323277"
           d="m 431.89654,516.8858 c 0,1.39857 -1.30262,2.53233 -2.90948,2.53233 -1.60686,0 -2.90948,-1.13376 -2.90948,-2.53233 0,-1.39856 1.30262,-2.53232 2.90948,-2.53232 1.60686,0 2.90948,1.13376 2.90948,2.53232 z"
           transform="translate(0,287.36218)" />
        <path
           sodipodi:type="arc"
           style="fill:#9f8b7f;fill-opacity:1;stroke:none"
           id="path3980"
           sodipodi:cx="436.58405"
           sodipodi:cy="528.95471"
           sodipodi:rx="3.0711207"
           sodipodi:ry="2.5323277"
           d="m 439.65517,528.95471 c 0,1.39857 -1.37499,2.53233 -3.07112,2.53233 -1.69614,0 -3.07113,-1.13376 -3.07113,-2.53233 0,-1.39856 1.37499,-2.53233 3.07113,-2.53233 1.69613,0 3.07112,1.13377 3.07112,2.53233 z"
           transform="translate(0,287.36218)" />
        <path
           sodipodi:type="arc"
           style="fill:#9f8b7f;fill-opacity:1;stroke:none"
           id="path3982"
           sodipodi:cx="449.62283"
           sodipodi:cy="526.47632"
           sodipodi:rx="2.5323277"
           sodipodi:ry="2.4245689"
           d="m 452.15516,526.47632 c 0,1.33905 -1.13376,2.42457 -2.53233,2.42457 -1.39856,0 -2.53232,-1.08552 -2.53232,-2.42457 0,-1.33905 1.13376,-2.42457 2.53232,-2.42457 1.39857,0 2.53233,1.08552 2.53233,2.42457 z"
           transform="translate(0,287.36218)" />
      </g>
      <g
         style="opacity:1"
         id="g4023">
        <path
           style="opacity:1;stroke-width:1px;fill:#814c3d;fill-opacity:1"
           d="m 508.72845,796.11218 c 3.89112,5.69873 7.92054,11.38462 12.68184,16.38419 5.2052,4.87217 11.41598,9.97116 18.97701,9.68456 4.83056,0.1703 10.66553,-0.60561 13.34104,-5.19268 4.0809,-6.7631 3.08204,-15.06526 2.15659,-22.52895 -1.91652,-8.51147 -6.06514,-16.26878 -9.17272,-24.36337 -3.26227,-6.43693 -7.80857,-12.45045 -13.76321,-16.60104 -6.09566,-3.98623 -13.87936,-7.31968 -21.15685,-4.72679 -4.5434,1.80922 -7.61428,6.35812 -8.08606,11.16184 -2.09587,9.83866 -0.72134,20.14909 2.3056,29.64381 0.76541,2.23426 1.67345,4.41964 2.71676,6.53843 z"
           id="path3996" />
        <path
           style="stroke-width:1px"
           d="m 515.94828,518.44828 37.5,-20.5819 -2.04742,-3.55604 -38.14655,21.12069 2.69397,3.01725 z"
           id="path4003"
           transform="translate(0,287.36218)" />
        <path
           sodipodi:type="arc"
           style="opacity:1;fill:#9f8b7f;fill-opacity:1;stroke:none"
           id="path4005"
           sodipodi:cx="508.18967"
           sodipodi:cy="497.48923"
           sodipodi:rx="2.9094827"
           sodipodi:ry="2.7478449"
           d="m 511.09915,497.48923 c 0,1.51759 -1.30262,2.74784 -2.90948,2.74784 -1.60687,0 -2.90949,-1.23025 -2.90949,-2.74784 0,-1.5176 1.30262,-2.74785 2.90949,-2.74785 1.60686,0 2.90948,1.23025 2.90948,2.74785 z"
           transform="translate(0,287.36218)" />
        <path
           sodipodi:type="arc"
           style="fill:#9f8b7f;fill-opacity:1;stroke:none"
           id="path4007"
           sodipodi:cx="506.78879"
           sodipodi:cy="482.34915"
           sodipodi:rx="3.0172415"
           sodipodi:ry="2.8017242"
           d="m 509.80603,482.34915 c 0,1.54735 -1.35087,2.80173 -3.01724,2.80173 -1.66638,0 -3.01724,-1.25438 -3.01724,-2.80173 0,-1.54735 1.35086,-2.80172 3.01724,-2.80172 1.66637,0 3.01724,1.25437 3.01724,2.80172 z"
           transform="translate(0,287.36218)" />
        <path
           sodipodi:type="arc"
           style="fill:#9f8b7f;fill-opacity:1;stroke:none"
           id="path4009"
           sodipodi:cx="514.11639"
           sodipodi:cy="468.01724"
           sodipodi:rx="2.8017242"
           sodipodi:ry="2.8017242"
           d="m 516.91812,468.01724 c 0,1.54735 -1.25438,2.80173 -2.80173,2.80173 -1.54735,0 -2.80172,-1.25438 -2.80172,-2.80173 0,-1.54735 1.25437,-2.80172 2.80172,-2.80172 1.54735,0 2.80173,1.25437 2.80173,2.80172 z"
           transform="translate(0,287.36218)" />
        <path
           sodipodi:type="arc"
           style="fill:#9f8b7f;fill-opacity:1;stroke:none"
           id="path4011"
           sodipodi:cx="529.25647"
           sodipodi:cy="469.79526"
           sodipodi:rx="2.8556035"
           sodipodi:ry="2.8556035"
           d="m 532.11207,469.79526 c 0,1.5771 -1.27849,2.8556 -2.8556,2.8556 -1.57711,0 -2.8556,-1.2785 -2.8556,-2.8556 0,-1.57711 1.27849,-2.85561 2.8556,-2.85561 1.57711,0 2.8556,1.2785 2.8556,2.85561 z"
           transform="translate(0,287.36218)" />
        <path
           sodipodi:type="arc"
           style="fill:#9f8b7f;fill-opacity:1;stroke:none"
           id="path4013"
           sodipodi:cx="541.97198"
           sodipodi:cy="482.1875"
           sodipodi:rx="2.963362"
           sodipodi:ry="2.7478449"
           d="m 544.93535,482.1875 c 0,1.51759 -1.32675,2.74784 -2.96337,2.74784 -1.63661,0 -2.96336,-1.23025 -2.96336,-2.74784 0,-1.51759 1.32675,-2.74784 2.96336,-2.74784 1.63662,0 2.96337,1.23025 2.96337,2.74784 z"
           transform="translate(0,287.36218)" />
        <path
           sodipodi:type="arc"
           style="fill:#9f8b7f;fill-opacity:1;stroke:none"
           id="path4015"
           sodipodi:cx="533.94397"
           sodipodi:cy="529.54742"
           sodipodi:rx="2.8017242"
           sodipodi:ry="2.5862069"
           d="m 536.74569,529.54742 c 0,1.42833 -1.25437,2.58621 -2.80172,2.58621 -1.54735,0 -2.80172,-1.15788 -2.80172,-2.58621 0,-1.42832 1.25437,-2.5862 2.80172,-2.5862 1.54735,0 2.80172,1.15788 2.80172,2.5862 z"
           transform="translate(0,287.36218)" />
        <path
           sodipodi:type="arc"
           style="fill:#9f8b7f;fill-opacity:1;stroke:none"
           id="path4019"
           sodipodi:cx="546.12067"
           sodipodi:cy="530.3017"
           sodipodi:rx="3.0172415"
           sodipodi:ry="2.5862069"
           d="m 549.13791,530.3017 c 0,1.42832 -1.35087,2.5862 -3.01724,2.5862 -1.66638,0 -3.01724,-1.15788 -3.01724,-2.5862 0,-1.42833 1.35086,-2.58621 3.01724,-2.58621 1.66637,0 3.01724,1.15788 3.01724,2.58621 z"
           transform="translate(0,287.36218)" />
        <path
           sodipodi:type="arc"
           style="fill:#9f8b7f;fill-opacity:1;stroke:none"
           id="path4021"
           sodipodi:cx="553.125"
           sodipodi:cy="518.01721"
           sodipodi:rx="2.9094827"
           sodipodi:ry="2.6939654"
           d="m 556.03448,518.01721 c 0,1.48784 -1.30262,2.69397 -2.90948,2.69397 -1.60686,0 -2.90948,-1.20613 -2.90948,-2.69397 0,-1.48783 1.30262,-2.69396 2.90948,-2.69396 1.60686,0 2.90948,1.20613 2.90948,2.69396 z"
           transform="translate(0,287.36218)" />
      </g>
      <path
         sodipodi:nodetypes="ccccccccccccccccccccc"
         id="path4172"
         d="m 505.69059,681.38757 c 16.34584,-1.05111 32.41726,-5.65148 46.29271,-14.62038 16.33853,-9.18835 29.11451,-23.34811 41.43465,-37.19875 8.326,-10.33058 15.90006,-21.26285 23.52312,-32.07792 14.57099,-23.04991 27.80784,-46.90405 40.48187,-71.01529 7.21394,-16.2145 15.85173,-32.67257 15.91114,-50.83991 1.54486,-14.71452 -0.1075,-29.85328 -5.27562,-43.73243 -6.61087,-9.98786 -9.64337,-21.92951 -18.12596,-30.66729 -8.89447,-11.71177 -20.52624,-20.86426 -31.23454,-30.75577 -13.44877,-6.51724 -24.55934,-16.98767 -38.76398,-22.03358 -16.21228,-6.98431 -33.6836,-10.59904 -51.34044,-10.69135 -22.05741,-1.07123 -44.32792,-1.95613 -66.11423,2.32307 -14.61989,1.96762 -28.84906,6.12395 -41.99995,12.84821 -13.22675,5.69494 -23.56093,16.48221 -33.61337,26.54063 -10.10185,11.26362 -18.28678,24.37969 -22.65837,38.92582 -6.74354,15.93319 -10.06109,32.99603 -10.65835,50.25374 -1.03088,19.33223 -4.0076,39.24259 2.19186,58.03731 6.35074,28.07843 19.59951,54.01167 36.92725,76.79574 10.87404,15.79922 24.36685,29.29839 38.17218,42.57577 13.11752,11.32468 27.53828,21.25591 43.89848,27.39258 9.14321,5.78103 20.47391,6.96796 30.95155,7.9398 z"
         style="stroke-width:1px;fill:#ffe7c1;fill-opacity:1;opacity:1" />
      <g
         style="opacity:1"
         id="g4094">
        <path
           style="stroke-width:1px;opacity:1"
           d="m 472.31731,645.97811 c 6.21563,5.15562 12.25952,10.53263 18.58763,15.5436 3.44784,2.27193 6.92211,4.74025 11.06496,5.48365 2.87869,0.95022 5.55925,-0.88447 8.20689,-1.74765 2.95305,-1.4126 5.30765,-3.80826 7.93455,-5.7327 6.37479,-5.28283 12.19657,-11.23965 17.10654,-17.91689 2.23764,-3.01274 4.71601,-5.86811 6.89951,-8.90416 1.53041,-3.41246 -3.88904,-1.38332 -5.81275,-1.92955 -21.68315,-0.0249 -43.3663,-0.0496 -65.04945,-0.0745 0.35404,5.09272 0.70808,10.18554 1.06212,15.27819 z"
           id="path4080" />
        <path
           style="fill:#eca3a3;fill-opacity:1;stroke-width:1px"
           d="m 535.71781,636.41901 c 1.83199,-2.07855 4.47863,-3.44119 6.09813,-5.64888 -0.21651,-2.59686 -3.53457,-2.76968 -5.59677,-2.88196 -6.69103,-0.70874 -13.42836,-0.30034 -20.14134,-0.53012 -11.72123,-0.19023 -23.47444,-0.3011 -35.16435,0.69427 -2.37555,-0.33207 -4.95191,1.40437 -3.73667,4.01368 1.05549,1.78227 3.25155,2.4611 4.86579,3.66624 1.77263,0.76159 3.82607,0.72244 5.72304,1.0885 5.3056,0.55674 10.63493,0.9186 15.96199,1.20978 8.47613,-0.23917 16.94026,-1.06105 25.42462,-0.80315 2.23121,0.001 4.44968,-0.0348 6.56556,-0.80836 z"
           id="path4084" />
        <path
           style="fill:#b73a3a;fill-opacity:1;stroke-width:1px"
           d="m 493.72315,663.38057 c 1.01586,-1.34461 1.83261,-2.90272 3.25784,-3.87396 1.06978,-1.08217 2.48605,-1.71623 3.93283,-2.11152 1.13118,-0.45214 2.31517,-0.79971 3.53776,-0.84977 1.26805,-0.24841 2.59566,-0.18475 3.78627,0.33556 1.16269,0.36051 2.34366,0.68187 3.55392,0.83372 0.93106,-0.75645 1.59551,-1.92582 2.95566,-1.92469 1.20687,-0.33701 2.54284,-0.34892 3.71308,0.10157 0.75949,0.49589 1.21571,1.1543 1.8828,1.7633 -2.31945,2.00695 -6.69221,5.71716 -9.62972,7.3624 -1.88459,0.97441 -3.96,1.46311 -5.87902,2.36677 -1.74151,0.21973 -4.01133,-0.21123 -5.85508,-1.20166 -1.63488,-0.61194 -3.19117,-1.41018 -4.62503,-2.40489 -0.21043,-0.13228 -0.42087,-0.26455 -0.63131,-0.39683 z"
           id="path4088"
           sodipodi:nodetypes="cccccccccccccc" />
        <path
           style="fill:#ffffff;fill-opacity:1;stroke-width:1px"
           d="m 467.57861,637.48113 c 0.10005,2.74849 0.0121,4.4773 2.74624,5.99524 2.21095,0.76958 4.26098,0.29808 5.19623,-1.93508 1.09511,-0.7708 2.76902,-3.98348 2.44525,-0.89789 0.0974,2.03502 -0.42362,4.66495 2.10808,5.38259 2.29484,0.48534 5.5745,1.37883 7.0527,-1.05358 1.31265,-1.46125 2.112,-4.53063 3.98581,-4.80744 -0.65277,2.04089 -1.22197,4.11574 -0.57611,6.05824 1.89372,0.86096 4.38889,1.42133 6.49957,1.18851 2.86068,0.22417 5.258,-1.77483 5.9447,-4.47423 0.95938,-1.21692 0.0638,2.76394 0.9909,3.54616 2.01848,1.15323 4.76328,0.6403 7.07889,0.93814 2.27795,0.0966 2.77146,-2.48586 3.62091,-4.08309 0.5031,-2.14316 1.54474,-1.25998 2.12575,0.33278 0.81732,2.21004 2.76661,3.65021 4.81334,4.64496 2.7784,0.0893 4.23105,-2.2457 4.674,-4.68542 0.47239,-3.19266 0.5525,0.46957 1.71278,2.42339 1.26173,1.41 3.42952,-1.89739 3.66866,-3.5068 0.50815,-2.6794 0.74801,-5.47253 0.22363,-8.16043 -0.83001,-1.92836 -3.96234,-4.61373 -5.41924,-1.79274 -0.63921,1.80187 -1.6595,3.63451 -3.05824,1.25706 -0.84646,-2.01842 -2.84184,-2.68457 -4.74465,-3.37303 -2.90162,0.164 -3.04514,2.10816 -4.50511,3.26243 -1.88076,2.12049 -2.37231,-3.09513 -4.39111,-2.72792 -2.23886,-0.75629 -4.84961,0.30496 -5.66899,2.57202 -0.66247,1.31742 -1.84414,4.6852 -2.71203,1.61953 -0.18253,-2.51253 -2.13936,-4.35289 -4.68313,-4.27286 -2.67755,0.30311 -3.54502,5.09574 -5.17145,5.13137 -0.10408,-2.38744 -1.09849,-5.54552 -4.04974,-5.33595 -2.23347,1.04495 -4.39981,2.30993 -6.42683,3.73109 -1.00104,-1.84362 -1.12683,-4.45825 -2.92434,-5.68616 -2.86899,0.23789 -5.7382,0.92159 -7.96625,2.8674 -1.21396,1.17362 -1.68109,2.00364 -2.34508,3.55407 l -0.24514,2.28764 z"
           id="path4076"
           sodipodi:nodetypes="cccccccccccccccccccccccccccccccccc" />
      </g>
      <g
         style="opacity:1"
         id="g4070">
        <path
           style="fill:#ffe9c3;fill-opacity:1;stroke-width:1px;opacity:1"
           d="m 421.98909,693.36506 c 1.41595,3.3039 3.11381,6.96699 6.64609,8.4425 2.71469,1.88781 6.31235,1.25893 8.20753,-1.44907 2.52266,-2.15147 3.99775,-5.69845 7.44345,-6.5799 3.58437,-1.10704 3.97429,3.11322 4.67066,5.50159 0.8958,3.66259 5.82463,2.28993 7.06424,-0.42133 1.65586,-1.38587 -0.27458,-4.63858 1.78347,-5.35615 -0.2734,2.6746 3.20976,5.95738 4.91053,2.58579 2.04896,-1.60413 3.0117,-3.97727 3.24533,-6.50329 0.0521,-2.57355 -0.31306,-5.35607 -2.0866,-7.35309 -2.21262,-2.1333 0.29175,-4.82903 2.79903,-4.49018 2.87572,-0.40713 5.23643,1.36879 7.31372,3.09824 1.39292,2.31183 5.62932,2.19562 5.12431,-1.19001 -0.0543,-2.94122 -2.25066,-5.32951 -4.26273,-7.24422 -2.72003,-1.65251 -5.6099,-3.06589 -8.51527,-4.366 -3.07116,-1.10285 -6.40136,-0.56194 -9.57595,-0.33118 -4.72067,0.42265 -8.67059,3.4841 -11.579,7.04568 -2.32918,2.85484 -4.72962,5.70151 -7.8643,7.71188 -2.25863,1.51451 -4.5498,3.07177 -7.03853,4.16036 -2.68655,0.45723 -6.20225,0.27332 -7.47319,3.2737 -0.63387,1.02724 -1.01984,2.25201 -0.81279,3.46468 z"
           id="path4035" />
        <path
           style="stroke-width:1px"
           d="m 440.61707,684.45959 c 1.13148,0.45038 2.32557,0.79708 3.335,1.50109 0.38512,0.45839 0.69264,0.97653 1.03247,1.46713 0.42027,0.76839 0.67667,1.6192 0.86887,2.46871 -0.0809,0.46832 -0.20076,1.18094 0.46858,1.25021 0.40661,0.0164 1.07159,0.3213 1.24596,-0.2242 0.15543,-0.63022 0.32131,-1.25877 0.48395,-1.88767 -0.49074,-1.27095 -0.98931,-2.54044 -1.57135,-3.77297 -1.03171,-0.7931 -2.05168,-1.60215 -3.10859,-2.36182 -0.59789,-0.14753 -1.20025,-0.51852 -1.8319,-0.32212 -0.47962,-0.0735 -1.11688,0.0512 -1.28578,0.57291 -0.13392,0.48582 0.45556,0.83425 0.36279,1.30873 z"
           id="path4040" />
        <path
           style="stroke-width:1px"
           d="m 453.52593,682.49875 c 1.15595,0.47779 2.50536,0.81917 3.28122,1.87628 0.62431,1.03697 1.03805,2.18681 1.4479,3.32005 0.21484,0.89335 0.0716,1.82768 0.002,2.73173 -0.35394,0.56791 0.0375,1.58891 0.7841,1.17701 0.25327,-0.28815 0.57278,-0.51318 0.85745,-0.7715 0.47221,-1.7417 0.83184,-3.65196 0.20884,-5.40249 -0.44917,-1.02054 -1.16804,-1.903 -1.91058,-2.72378 -1.02089,-1.0167 -2.29808,-1.86428 -3.73495,-2.11672 -0.93842,-0.0823 -0.891,1.04086 -0.88362,1.6822 l -0.0208,0.11603 -0.0316,0.11119 0,0 z"
           id="path4050" />
        <path
           style="opacity:0.17948722000000000;stroke-width:1px"
           d="m 462.75822,667.38394 c 3.7828,0.87138 7.62435,2.01282 10.75509,4.39905 0.97969,0.68111 2.0127,1.32961 2.68651,2.3443 0.64815,0.84553 1.23465,1.75063 1.94227,2.53879 0.66274,0.64515 1.37152,0.12828 0.99226,-0.70671 0.0777,-1.24274 -0.70224,-2.12408 -1.54591,-2.92257 -0.94925,-1.16697 -1.96817,-2.33573 -3.34529,-3.00585 -1.71371,-1.08444 -3.51728,-2.04119 -5.45457,-2.65525 -2.02791,-0.78737 -4.22897,-0.82935 -6.35717,-1.13558 0.10894,0.38127 0.21787,0.76255 0.32681,1.14382 z"
           id="path4062" />
      </g>
      <path
         transform="translate(0,287.36218)"
         id="path4175"
         d="m 586.08114,344.18507 1.68092,-0.24361 2.77718,0.48722 4.79915,2.09506 4.23884,2.36303 7.01602,4.33629 4.01959,2.92334 3.5811,2.99643 0.68211,0.92572 0.46286,1.0719 0.14617,1.14497 -0.0244,1.07189 -0.3167,1.87581 -0.58467,2.5092 -0.19488,1.24242 -0.0487,1.29115 -0.31669,1.02317 -1.24242,3.53237 -1.60784,4.45809 -1.70528,4.21448 -1.5104,3.19132 -1.80272,3.31312 -1.09683,1.50163 -2.349,3.07606 -2.40492,2.74049 -1.95749,1.78971 -0.50336,0.44743 -1.78971,1.67785 -1.62192,0.783 -1.28635,0.50335 -1.67786,0.27965 -2.01342,0.16778 -2.06935,-0.0559 -1.45414,-0.61521 -2.29306,-1.78971 -2.7405,-2.06935 -1.78971,-2.01342 -1.78971,-2.85235 -1.84563,-3.97092 -1.73378,-4.69799 -1.11857,-4.41834 -0.783,-3.7472 0.0559,-1.39821 0.0559,-2.01343 0.16778,-1.23042 0.50336,-0.72707 1.67785,-2.68456 1.39821,-2.46085 1.78971,-3.46757 1.62192,-3.07606 1.62193,-3.13199 0.72707,-1.90157 1.23042,-3.02013 0.783,-2.12528 0.55033,-1.74342 0.2798,-1.37101 0.44768,-1.06324 0.64354,-0.72747 0.7146,-0.41762 z"
         style="stroke-width:1px;fill:#e90b3a;fill-opacity:1" />
      <g
         id="g4185">
        <path
           id="path4177"
           d="m 356.18306,536.39334 c -2.75302,-1.31571 -5.75795,-1.68355 -8.74826,-2.00642 -4.51242,-0.74273 -9.55459,-2.13893 -13.8365,0.1885 -3.21225,1.9797 -2.73604,6.49879 -1.54834,9.58762 1.18575,7.16149 4.2302,13.81437 7.31818,20.32346 2.54749,5.71734 5.04304,11.45574 7.47096,17.22405 2.14045,4.23734 3.84347,8.77887 6.71995,12.5894 3.82815,4.36506 8.91052,8.11069 14.76231,8.99977 4.5571,0.56674 9.19223,0.42221 13.64172,-0.76486 2.56721,-0.66092 5.39093,-2.18774 6.31744,-4.79986 -0.63793,-3.65813 -4.26847,-6.35241 -5.79134,-9.79541 -6.00062,-10.23598 -12.36934,-20.37511 -16.53968,-31.53831 -2.59172,-5.5479 -4.83552,-11.24933 -6.76122,-17.05995 -0.68024,-1.81522 -0.83165,-2.89979 -3.00522,-2.94799 z"
           style="fill:#fee4c1;fill-opacity:1;stroke-width:1px" />
        <path
           sodipodi:nodetypes="ccccccccccccccc"
           style="stroke-width:1px;opacity:0.78754579"
           d="m 350.7735,556.26236 c -0.62071,0.48208 -2.26666,0.37337 -2.94359,-0.20609 -2.18483,-1.78862 -3.09567,-3.74438 -4.00419,-6.32674 -0.45208,-2.83142 2.55263,-4.30127 4.85425,-4.8359 2.14285,-0.28956 4.63959,-0.0556 5.92312,1.93223 2.25279,3.00996 4.00502,6.3295 5.33577,9.83912 4.32891,10.20227 7.19649,21.01236 8.51294,32.01657 -2.93673,0.4608 -3.8225,-4.18037 -3.90702,-6.57037 -0.77012,-7.22544 -3.16028,-14.12906 -5.18872,-21.06458 -0.93938,-2.95516 -3.12395,-5.29554 -4.00338,-8.26882 -1.14284,-2.42611 -3.47378,-6.28756 -6.72063,-5.05157 -3.52799,0.16083 -1.26183,5.3363 0.61949,6.75991 l 0.25252,0.25253 0.25251,0.25254 1.01693,1.27117 z"
           id="path4179" />
        <path
           id="path4183"
           d="m 356.4283,536.50698 c 2.64702,6.44961 4.84448,13.07784 7.77157,19.4122 1.73521,4.17789 3.29661,8.43148 5.56049,12.3652 4.05638,7.69531 8.64718,15.09102 13.15686,22.52296 1.70897,2.46031 3.51673,4.85223 5.06827,7.42022 3.3122,-0.90983 -0.90399,-3.53685 -1.47662,-5.27109 -4.43217,-6.24152 -8.25355,-12.87613 -11.96502,-19.5615 -2.35755,-3.95267 -4.64996,-7.97755 -6.53504,-12.17266 -1.50458,-4.63929 -3.43552,-9.11386 -5.32889,-13.60085 -1.43247,-3.67258 -2.69914,-7.41038 -4.25733,-11.03338 -0.66476,-0.027 -1.32953,-0.0541 -1.99429,-0.0811 z"
           style="opacity:0.1684982;stroke-width:1px" />
      </g>
      <g
         id="g4204">
        <path
           style="stroke-width:1px;fill:#fde6bd;fill-opacity:1;opacity:1"
           d="M 647.39039,259.36326 650,258.11064 l 4.48852,-0.83507 3.44467,0.62631 2.50523,1.35699 1.14822,3.34029 0.31315,3.02714 -0.52192,3.65345 -1.67015,6.99374 -1.04384,5.11482 -1.46137,3.65344 -1.04385,2.60961 -1.46137,4.5929 -1.87892,4.48852 -2.08768,8.35072 -1.25261,4.38414 -1.56576,4.17537 -0.73069,1.87891 -1.56576,2.92276 -1.87892,1.98329 -1.25261,1.25261 -3.34029,1.87892 -5.84551,2.29645 -3.75783,1.77453 -4.38413,0.73069 -4.69729,0.52192 -3.75783,0.10438 -2.71399,-0.20877 -1.77453,-0.93945 -2.29645,-1.67015 -0.83507,-2.08768 -0.20877,-2.19206 0.73069,-2.92276 2.71399,-3.75783 5.01044,-7.51566 4.38413,-6.88935 3.86221,-7.20251 3.13153,-4.90605 4.07098,-6.5762 3.65344,-6.78497 3.44468,-5.9499 3.13152,-5.42797 2.50522,-3.02714 1.87891,-1.56576 z"
           id="path4194"
           transform="translate(0,287.36218)"
           sodipodi:nodetypes="cccccccccccccccccccccccccccccccccccccccccccc" />
        <path
           style="stroke-width:1px;opacity:0.76923077"
           d="m 653.23591,564.36636 c 1.00703,-1.22071 2.37105,-2.30969 2.34848,-4.04104 0.0692,-1.95437 -1.21036,-3.86897 -3.10675,-4.38373 -1.67282,-0.5679 -3.42118,0.65577 -4.30703,2.01893 -3.38367,3.84061 -5.7039,8.45884 -7.57669,13.18611 -0.84647,2.19629 -2.08171,4.21499 -3.00704,6.36734 -0.57495,2.10867 -1.47519,4.08787 -2.32691,6.091 -1.21898,3.1404 -1.65815,6.50814 -2.7965,9.6758 -0.11442,1.45425 -0.68274,2.94439 -0.063,4.3495 0.81602,1.13265 3.14999,0.79288 2.56119,-1.00252 -1.29196,-1.11437 -0.66782,-2.59061 -0.15532,-3.9346 1.70705,-5.08739 3.53943,-10.13368 5.40418,-15.16451 1.22335,-3.17425 2.67127,-6.25557 4.43725,-9.16562 1.48896,-2.90932 2.99062,-5.91273 5.51082,-8.08438 0.67617,-0.91092 2.64164,-2.11758 2.84763,-0.24262 0.19701,1.05815 0.63991,2.16149 0.43532,3.23347 -0.0685,0.36562 -0.13711,0.73129 -0.20566,1.09687 z"
           id="path4196" />
        <path
           style="opacity:0.13919414;stroke-width:1px"
           d="m 608.45511,608.10331 c 5.73472,-7.48006 10.70057,-15.49857 15.62553,-23.5231 5.3964,-8.79578 10.28284,-17.88491 15.09766,-27.00734 1.97695,-3.27046 4.19178,-6.3982 6.12441,-9.69921 3.21447,-1.3091 0.76915,3.46222 -0.3766,4.42932 -5.76743,7.99093 -10.00597,16.911 -15.01078,25.36719 -2.58139,3.92395 -4.83033,8.04335 -7.01309,12.19879 -3.10057,4.20583 -5.70711,8.73871 -8.59136,13.08491 -1.66093,2.34921 -3.46231,4.59455 -5.15083,6.92351 -0.46083,-0.45824 -0.41057,-1.21954 -0.70494,-1.77407 z"
           id="path4200" />
      </g>
      <g
         style="opacity:1"
         id="g4164">
        <path
           style="opacity:0.37728941999999999;fill:#a3947b;fill-opacity:1;stroke-width:1px"
           d="m 641.53776,607.7061 0.20688,-1.93089 -1.51712,-3.72385 -1.24129,-1.79297 -2.34465,-1.86193 -3.03425,-0.13792 -2.34465,0 -0.68961,1.24129 2.27569,0.069 2.82738,0.48272 1.724,1.24128 1.65505,2.48257 1.03441,1.72401 0.48272,2.13777 0.20688,0.89649 0.75856,-0.82753 z"
           id="path4145" />
        <path
           style="fill:#ffe7c1;fill-opacity:1;stroke-width:1px"
           d="m 609.67988,651.98108 c 2.29852,-1.24373 4.73145,-2.89193 5.19176,-5.68036 1.61869,-2.49065 3.81929,-4.69508 5.97743,-6.75218 2.27041,-1.24742 3.72548,-3.65035 6.10078,-4.64108 3.24592,-1.05545 6.56243,-2.40458 8.90133,-4.98853 1.99252,-1.31914 3.11069,-3.22639 3.73124,-5.49399 1.07532,-1.95972 1.19377,-4.16443 1.42126,-6.33889 0.37664,-3.54232 0.57936,-7.13388 0.30921,-10.68602 -0.22794,-2.49662 -1.67776,-4.60763 -3.23332,-6.48834 -1.65004,-2.07328 -4.4743,-2.00622 -6.87746,-2.00629 -2.55639,-0.26804 -4.49489,3.32498 -2.46737,5.08358 1.85589,1.36675 5.59869,0.26984 5.85549,3.38742 -0.3188,1.8419 -1.79432,3.4512 -3.26399,4.58944 -2.72082,0.53543 -4.01195,-2.72144 -6.47732,-3.13587 -2.03838,-0.67414 -4.04187,-2.88369 -6.30127,-1.75037 -2.50037,1.14453 -5.26104,1.38256 -7.91074,1.99228 -2.20987,1.01429 -1.96296,4.27329 0.16046,5.25212 1.24493,0.38027 2.98051,2.74697 0.5409,2.29528 -2.32382,-0.0998 -5.53006,2.04054 -5.29056,4.57923 0.80257,3.2196 5.22255,3.43026 6.50082,6.01675 -0.64857,1.94138 -2.69642,3.20774 -3.89267,4.88583 -1.85345,1.66073 -4.45028,2.26815 -6.63452,3.42069 -3.21491,0.6576 -2.52223,4.31128 -2.19731,6.71972 0.31629,1.94297 1.28071,3.66098 2.61743,5.08401 1.80727,2.34081 4.23171,4.26125 7.23842,4.65557 z"
           id="path4121" />
        <path
           style="stroke-width:1px"
           d="m 620.10399,634.85785 c -0.0193,-0.5777 -0.0385,-1.15541 -0.0578,-1.73311 -0.39096,-0.66564 -0.66131,-1.41735 -1.21921,-1.97003 -0.68077,-0.78651 -1.38907,-1.56057 -2.20456,-2.20916 -0.37887,-0.22572 -0.76069,-0.44789 -1.14007,-0.67349 -0.50067,0.0578 -1.00135,0.11554 -1.50202,0.17331 0.28885,-0.53919 0.5777,-1.07837 0.86655,-1.61756 0.53581,0.0611 1.08521,0.0414 1.61179,0.15908 0.59228,0.23598 1.23789,0.38272 1.73587,0.80398 0.47112,0.32715 0.97005,0.63457 1.31771,1.10154 0.46585,0.51321 0.94583,1.02332 1.26525,1.64517 0.24303,0.36219 0.42832,0.75325 0.51533,1.18125 0.1484,0.49645 0.29858,1.00357 0.25445,1.528 -0.0105,0.41689 0.0733,0.87081 -0.14567,1.24797 -0.10514,0.23655 -0.21027,0.47311 -0.31541,0.70967 -0.32739,-0.11553 -0.65485,-0.23118 -0.98221,-0.34662 z"
           id="path4123" />
        <path
           style="stroke-width:1px"
           d="m 617.09994,616.14034 c 0.25034,-0.4429 0.50067,-0.88581 0.75101,-1.32871 1.10598,-0.16899 2.25004,-0.42124 3.32906,0.0235 1.5761,0.55866 2.94719,1.63275 4.08686,2.83855 0.61941,0.87136 1.49958,1.69566 1.4293,2.8489 0.2239,0.85912 -0.28986,2.83419 -1.39566,1.73861 -0.12435,-0.93164 -0.2986,-1.96844 -1.0731,-2.6541 -1.11114,-0.69389 -1.80761,-1.89258 -2.90904,-2.58042 -1.06281,-0.57429 -2.23705,-1.02848 -3.46564,-0.88768 -0.25089,0.004 -0.50193,0.008 -0.75279,10e-4 z"
           id="path4128" />
        <path
           style="opacity:0.36263739000000000;stroke-width:1px"
           d="m 614.27103,609.45789 c 2.37379,-0.39258 4.83013,-1.14163 7.20614,-0.34339 2.17473,0.39796 4.48324,1.11525 5.9243,2.90129 0.5765,2.50188 2.24519,-0.88051 0.60028,-1.52522 -3.20436,-2.2678 -7.26083,-3.81559 -11.21879,-2.90335 -1.02836,0.11944 -2.92586,0.37349 -2.51193,1.87067 z"
           id="path4135" />
        <path
           style="stroke-width:1px;opacity:0.32967033000000001"
           d="m 629.05595,610.11971 c 0.80454,-0.57467 1.60907,-1.14933 2.41361,-1.724 0.20688,-0.6896 0.41376,-1.37921 0.62064,-2.06881 0.27584,-0.023 0.55168,-0.046 0.82752,-0.069 0.22987,0.43675 0.45974,0.87349 0.68961,1.31024 -0.24678,0.49576 -0.46017,1.01197 -0.72848,1.49461 -0.33078,0.38191 -0.62445,0.80338 -0.98203,1.15758 -0.30333,0.17333 -0.60666,0.34666 -0.90999,0.51999 -0.48272,-0.023 -0.96544,-0.046 -1.44816,-0.069 -0.16092,-0.18386 -0.32173,-0.36781 -0.48272,-0.55161 z"
           id="path4154" />
      </g>
      <g
         id="g4249">
        <path
           style="stroke-width:1px;fill:#f5ac50;fill-opacity:1;opacity:1"
           d="m 672.78177,482.69791 c 7.30394,-3.42274 5.61017,-12.63625 5.94048,-19.21612 -1.78713,-7.75684 -4.33893,-15.30739 -5.14766,-23.22629 -2.51091,-5.93701 -4.32634,-12.16716 -5.95485,-18.27057 -1.62271,-3.83021 -5.11311,-7.28881 -5.02981,-11.58918 8.67346,-0.13351 14.67902,8.06548 22.78177,10.19185 -1.43335,-3.94581 -6.25414,-7.66921 -9.42727,-11.1195 -4.88351,-4.69218 -9.09113,-10.11148 -14.67345,-14.06036 0.24169,-3.64145 8.07483,-0.81841 11.34887,-1.33372 2.79569,0.6705 13.62102,1.21999 11.75043,0.61473 -4.00544,-0.77099 -9.47515,-0.81212 -11.70841,-4.67669 2.04357,-4.6886 7.18366,-7.51369 8.27338,-12.70983 -6.74323,0.95798 -13.5146,1.09256 -19.99242,3.32961 -5.28761,1.65455 -2.57578,-7.08468 -3.76518,-10.41312 0.53676,-4.88402 2.15463,-9.107 -3.11671,-3.7167 -2.70111,2.06551 -6.2476,10.07551 -9.34077,6.33754 -4.41478,-4.97832 -9.26284,-9.84623 -15.22377,-12.92342 -3.38345,2.50849 -8.39856,4.95205 -11.1091,0.17806 -5.91986,-6.52779 -10.07703,-14.9267 -18.44636,-18.84259 -10.41988,-4.87237 -21.61453,-7.95248 -32.59298,-11.33452 -12.39473,-2.44484 -24.42049,-6.54811 -36.98434,-8.1848 -4.85077,-1.50796 -22.85814,-3.23757 -17.91115,-0.32989 7.1387,2.19565 3.47078,4.06529 -2.12352,3.01816 -20.2283,-0.0684 -40.82794,-2.26542 -60.60853,3.13555 -7.29179,-0.0846 -11.19175,7.03691 -17.30368,9.94741 -14.56209,7.40517 -30.95992,10.81302 -45.23755,18.90919 -9.10315,4.63794 -15.67298,12.60931 -23.00521,19.50333 -4.71441,3.19702 -5.715,8.12079 1.05007,4.41953 6.57968,-2.95923 6.09545,1.80817 1.44262,5.00023 -4.64434,2.44279 -3.30567,7.36141 -2.51328,11.48885 0.98061,8.36923 -7.04416,14.22055 -8.29003,22.24001 -2.28452,7.72383 -6.75595,14.88855 -5.61394,23.24327 0.3776,22.50448 -1.00526,45.1214 2.14866,67.4883 3.72871,-17.35368 3.30033,-35.53624 9.96452,-52.22044 4.59069,-12.52345 6.85962,-26.00703 14.6204,-37.1394 3.51936,-7.03297 11.69099,-9.65956 17.97663,-13.75522 9.89246,-6.85249 15.67821,-18.08625 23.39571,-27.14338 3.62767,-4.11248 7.81039,-7.75829 11.86049,-11.46818 3.5282,3.90448 -1.88553,8.60647 -0.47962,13.06955 7.44956,-6.88949 17.06766,-10.81303 26.0741,-15.25135 10.72625,-3.9156 22.16497,-8.92952 33.7154,-7.40108 4.04443,1.35979 7.6756,6.90688 4.9587,10.47371 2.28751,0.69196 7.86654,-3.78497 11.43178,-4.8087 9.02446,-5.01392 19.84962,-8.04108 29.81522,-3.87589 5.00339,1.19996 8.32392,5.04558 10.65809,9.26768 3.07819,6.81076 6.16886,-0.71638 8.34834,-4.28394 4.35011,-6.17434 12.49983,-2.47399 18.05325,-0.10046 11.31243,4.73633 21.01018,12.65617 31.54189,18.84715 4.10405,4.05821 11.96429,7.85645 16.06376,1.81152 1.98141,-5.22799 6.47417,1.89255 8.8932,3.748 8.85506,7.10715 8.50833,19.31782 12.65031,28.88749 1.80165,4.11169 8.67393,4.7144 6.98061,10.06568 -0.0613,4.83488 0.0748,9.67157 0.47962,14.49069 5.12817,1.1855 5.08429,-6.53383 6.95444,-9.83213 5.50406,7.17714 3.12674,16.87175 6.80341,24.74661 0.88043,8.08868 2.38857,16.85804 7.58508,23.33492 0.67945,0.47962 1.35891,0.95923 2.03836,1.43885 z"
           id="path4209" />
        <path
           style="stroke-width:1px;opacity:1"
           d="m 425.15823,371.34952 c 3.3904,-4.50638 6.80017,-9.00708 10.48606,-13.27759 1.55332,-1.53716 3.21871,-2.98899 5.04958,-4.18593 0.54966,-0.14378 1.53129,-0.54186 1.90403,-0.25177 0.0415,1.05007 -1.13337,1.52458 -1.68415,2.26789 -2.70815,2.72817 -5.31232,5.5609 -8.071,8.23748 -1.43179,1.79332 -2.30689,3.99478 -3.93063,5.64476 -0.70112,0.80579 -1.40129,1.61503 -2.17162,2.3563 -0.52742,-0.26371 -1.05485,-0.52743 -1.58227,-0.79114 z"
           id="path4212" />
        <path
           style="stroke-width:1px;opacity:1"
           d="m 482.59494,354.7356 c 0.81086,-3.06029 1.37765,-6.38659 3.61194,-8.794 1.17005,-1.45859 2.47784,-2.82464 4.00403,-3.91457 0.72371,-0.18396 2.33906,0.22945 1.04138,0.92971 -1.49931,1.39998 -2.4825,3.20564 -3.73031,4.80781 -1.42269,2.28021 -2.21827,4.9139 -2.66658,7.55114 -0.76343,-0.153 -1.50561,-0.39219 -2.26046,-0.58009 z"
           id="path4217" />
        <path
           style="stroke-width:1px;opacity:1"
           d="m 549.36709,359.00775 c 0.63291,0.15823 1.26582,0.31645 1.89873,0.47468 1.39334,-3.07156 2.39648,-6.42533 2.0394,-9.83228 0.0572,-1.89362 -0.87346,-3.66367 -2.30826,-4.84985 -1.43501,-1.44056 -3.46649,0.71038 -1.67364,1.91905 1.17616,1.19175 1.07959,3.01804 1.5413,4.53906 -0.0336,2.05832 -0.6815,4.06423 -1.08642,6.07601 -0.13291,0.55878 -0.27024,1.1165 -0.41111,1.67333 z"
           id="path4225" />
        <path
           style="stroke-width:1px;opacity:1"
           d="m 602.8481,367.39383 c 2.69493,1.88837 5.47162,4.18383 6.20913,7.56583 1.04076,3.14368 1.95259,6.33364 2.62796,9.57685 2.92003,0.92083 2.70927,-3.15044 1.99094,-4.87507 -0.67886,-3.36964 -1.73807,-6.76753 -4.06403,-9.38785 -1.47533,-1.80766 -3.32089,-3.29235 -5.33349,-4.46246 -0.85914,-0.0355 -0.93241,1.10893 -1.43051,1.5827 z"
           id="path4235" />
        <path
           style="stroke-width:1px"
           d="m 649.84177,402.99509 c 2.58866,-0.60746 2.63595,2.32152 2.59106,4.09119 0.0296,3.94181 -0.40339,7.92325 -1.45166,11.72724 -0.43459,1.87316 -1.92502,5.01901 -3.74312,2.37461 1.37874,-2.31514 1.37962,-5.18828 1.79762,-7.8307 0.50405,-3.43143 0.67269,-6.90014 0.8061,-10.36234 z"
           id="path4242" />
      </g>
      <path
         id="path4257"
         d="m 416.4557,491.28623 c 2.90991,-1.59755 6.15645,-2.3202 9.29937,-3.23735 5.97859,-2.31755 12.44098,-2.47215 18.73129,-3.19324 6.54781,-0.53255 13.09268,0.54681 19.55149,1.51768 6.65476,2.08888 13.82003,2.94672 19.8583,6.6806 1.63813,0.94754 3.74456,2.98303 4.40694,-0.0449 1.52009,-3.23981 -2.6801,-4.07894 -4.73997,-5.22635 -3.35183,-1.4176 -6.74125,-2.88881 -10.25651,-3.80353 -6.62587,-1.17894 -13.07087,-3.59382 -19.88357,-3.51829 -5.51982,-0.0245 -11.03875,0.3377 -16.546,0.69196 -6.42537,0.52639 -12.78987,2.16297 -18.46276,5.28009 -1.53428,0.68676 -3.41866,1.19846 -2.35418,3.11271 0.13186,0.58022 0.26373,1.16043 0.3956,1.74065 z"
         style="stroke-width:1px" />
      <path
         id="path4262"
         d="m 533.70253,472.61534 c 8.61885,-0.43018 17.25174,0.83477 25.67951,2.54118 9.01056,2.55172 17.71215,6.19647 26.0757,10.39786 2.42913,2.42087 9.19895,4.68483 7.84189,-1.1063 -4.87109,-3.38229 -10.51069,-5.6946 -16.06125,-7.87904 -10.77486,-4.45844 -22.36296,-7.12957 -34.00983,-7.84993 -2.43694,0.19113 -4.87389,0.38227 -7.31083,0.5734 -0.73839,1.10761 -1.47684,2.21519 -2.21519,3.32283 z"
         style="stroke-width:1px" />
      <g
         style="opacity:1"
         transform="matrix(-0.98133878,0,0,1.0161252,999.07444,-6.33922)"
         id="g4286">
        <path
           style="opacity:0.59706935999999999;fill:#404040;fill-opacity:1;stroke-width:1px"
           d="m 451.31977,609.89955 c 14.24743,0.62736 26.84163,-7.88868 36.8838,-17.12256 8.86714,-9.08996 14.17269,-21.32766 16.01185,-33.78237 1.06978,-10.78963 -0.87796,-22.23525 -6.67103,-31.48805 -4.18209,-5.56816 -9.31713,-10.71717 -16.03508,-13.06871 -10.83223,-4.76302 -23.749,-5.26931 -34.51009,-0.0297 -10.71798,4.17553 -19.4493,12.38419 -26.3143,21.41156 -6.13959,8.07686 -10.39334,17.78882 -10.58464,28.03799 -0.90147,10.28838 1.38982,20.93708 7.45772,29.41089 6.71971,10.6099 19.37876,15.994 31.61579,16.51012 0.71456,0.0525 1.43004,0.0926 2.14598,0.1208 z"
           id="path4288" />
        <path
           id="path4290"
           d="m 450.91978,611.3993 c 14.24743,0.62736 26.84163,-7.88868 36.8838,-17.12256 8.86714,-9.08996 14.17269,-21.32766 16.01185,-33.78237 1.06978,-10.78963 -0.87796,-22.23525 -6.67103,-31.48805 -4.18209,-5.56816 -9.31713,-10.71717 -16.03508,-13.06871 -10.83223,-4.76302 -23.749,-5.26931 -34.51009,-0.0297 -10.71798,4.17553 -19.4493,12.38419 -26.3143,21.41156 -6.13959,8.07686 -10.39334,17.78882 -10.58464,28.03799 -0.90147,10.28838 1.38982,20.93708 7.45772,29.41089 6.71971,10.6099 19.37876,15.994 31.61579,16.51012 0.71456,0.0525 1.43004,0.0926 2.14598,0.1208 z"
           style="fill:#ffffff;fill-opacity:1;stroke-width:1px" />
        <path
           transform="translate(-7.07441,287.07145)"
           d="m 485.91773,279.95255 c 0,2.66529 -2.12523,4.82594 -4.74683,4.82594 -2.62161,0 -4.74684,-2.16065 -4.74684,-4.82594 0,-2.6653 2.12523,-4.82595 4.74684,-4.82595 2.6216,0 4.74683,2.16065 4.74683,4.82595 z"
           sodipodi:ry="4.8259492"
           sodipodi:rx="4.7468352"
           sodipodi:cy="279.95255"
           sodipodi:cx="481.1709"
           id="path4292"
           style="fill:#000000;fill-opacity:1;stroke:none;opacity:1"
           sodipodi:type="arc" />
      </g>
      <g
         id="g4281">
        <path
           id="path4279"
           d="m 451.31977,609.89955 c 14.24743,0.62736 26.84163,-7.88868 36.8838,-17.12256 8.86714,-9.08996 14.17269,-21.32766 16.01185,-33.78237 1.06978,-10.78963 -0.87796,-22.23525 -6.67103,-31.48805 -4.18209,-5.56816 -9.31713,-10.71717 -16.03508,-13.06871 -10.83223,-4.76302 -23.749,-5.26931 -34.51009,-0.0297 -10.71798,4.17553 -19.4493,12.38419 -26.3143,21.41156 -6.13959,8.07686 -10.39334,17.78882 -10.58464,28.03799 -0.90147,10.28838 1.38982,20.93708 7.45772,29.41089 6.71971,10.6099 19.37876,15.994 31.61579,16.51012 0.71456,0.0525 1.43004,0.0926 2.14598,0.1208 z"
           style="opacity:0.59706936;fill:#404040;fill-opacity:1;stroke-width:1px" />
        <path
           style="opacity:1;fill:#ffffff;fill-opacity:1;stroke-width:1px"
           d="m 450.91978,611.3993 c 14.24743,0.62736 26.84163,-7.88868 36.8838,-17.12256 8.86714,-9.08996 14.17269,-21.32766 16.01185,-33.78237 1.06978,-10.78963 -0.87796,-22.23525 -6.67103,-31.48805 -4.18209,-5.56816 -9.31713,-10.71717 -16.03508,-13.06871 -10.83223,-4.76302 -23.749,-5.26931 -34.51009,-0.0297 -10.71798,4.17553 -19.4493,12.38419 -26.3143,21.41156 -6.13959,8.07686 -10.39334,17.78882 -10.58464,28.03799 -0.90147,10.28838 1.38982,20.93708 7.45772,29.41089 6.71971,10.6099 19.37876,15.994 31.61579,16.51012 0.71456,0.0525 1.43004,0.0926 2.14598,0.1208 z"
           id="path4273" />
        <path
           sodipodi:type="arc"
           style="fill:#000000;fill-opacity:1;stroke:none"
           id="path4267"
           sodipodi:cx="481.1709"
           sodipodi:cy="279.95255"
           sodipodi:rx="4.7468352"
           sodipodi:ry="4.8259492"
           d="m 485.91773,279.95255 c 0,2.66529 -2.12523,4.82594 -4.74683,4.82594 -2.62161,0 -4.74684,-2.16065 -4.74684,-4.82594 0,-2.6653 2.12523,-4.82595 4.74684,-4.82595 2.6216,0 4.74683,2.16065 4.74683,4.82595 z"
           transform="translate(0,287.36218)" />
      </g>
    </g>
  </g>
</svg>
